<svg xmlns="http://www.w3.org/2000/svg" xmlns:xlink="http://www.w3.org/1999/xlink" viewBox="0 0 2773.94 2774.84"><defs><style>.cls-1{isolation:isolate;}.cls-2{fill:url(#linear-gradient);}.cls-3{fill:#bdd0fb;}.cls-4{opacity:0.52;}.cls-34,.cls-36,.cls-5{fill:#fff;}.cls-5{mix-blend-mode:overlay;}.cls-6{fill:url(#linear-gradient-2);}.cls-7{fill:url(#linear-gradient-3);}.cls-8{fill:url(#linear-gradient-4);}.cls-9{fill:url(#linear-gradient-5);}.cls-10{fill:url(#linear-gradient-6);}.cls-11{fill:url(#linear-gradient-7);}.cls-12{fill:url(#linear-gradient-8);}.cls-13{fill:url(#linear-gradient-9);}.cls-14{fill:url(#linear-gradient-10);}.cls-15{fill:url(#linear-gradient-11);}.cls-16{fill:url(#linear-gradient-12);}.cls-17{fill:url(#linear-gradient-13);}.cls-18{fill:url(#linear-gradient-14);}.cls-19{fill:url(#linear-gradient-15);}.cls-20{fill:url(#linear-gradient-16);}.cls-21{fill:url(#linear-gradient-17);}.cls-22{fill:url(#linear-gradient-18);}.cls-23{fill:url(#linear-gradient-19);}.cls-24{fill:url(#linear-gradient-20);}.cls-25{fill:url(#linear-gradient-21);}.cls-26{fill:url(#linear-gradient-22);}.cls-27{fill:url(#linear-gradient-23);}.cls-28{fill:url(#linear-gradient-24);}.cls-29{fill:url(#linear-gradient-25);}.cls-30{fill:url(#linear-gradient-26);}.cls-31{fill:url(#linear-gradient-27);}.cls-32{fill:url(#linear-gradient-28);}.cls-33{opacity:0.5;}.cls-35{fill:#91b3fa;}.cls-36{opacity:0.57;}.cls-37{fill:#7d97f4;}.cls-38{fill:url(#linear-gradient-29);}.cls-39{fill:url(#linear-gradient-30);}.cls-40{fill:url(#linear-gradient-31);}.cls-41{fill:url(#linear-gradient-32);}.cls-42{fill:url(#linear-gradient-33);}.cls-43{fill:url(#linear-gradient-34);}.cls-44{fill:url(#linear-gradient-35);}.cls-45{fill:url(#linear-gradient-36);}.cls-46{fill:url(#linear-gradient-37);}.cls-47{fill:url(#linear-gradient-38);}.cls-48{fill:url(#linear-gradient-39);}.cls-49{fill:url(#linear-gradient-40);}.cls-50{fill:url(#linear-gradient-41);}.cls-51{fill:url(#linear-gradient-42);}.cls-52{fill:url(#linear-gradient-43);}.cls-53{fill:url(#linear-gradient-44);}.cls-54{fill:url(#linear-gradient-45);}.cls-55{fill:url(#linear-gradient-46);}.cls-56{fill:url(#linear-gradient-47);}.cls-57{fill:url(#linear-gradient-48);}.cls-58{fill:url(#linear-gradient-49);}.cls-59{fill:url(#linear-gradient-50);}.cls-60{fill:url(#linear-gradient-51);}.cls-61{fill:url(#linear-gradient-52);}.cls-62{fill:url(#linear-gradient-53);}.cls-63{fill:url(#linear-gradient-54);}.cls-64{fill:url(#linear-gradient-55);}.cls-65{fill:url(#linear-gradient-56);}.cls-66{opacity:0.3;}</style><linearGradient id="linear-gradient" x1="3105.89" y1="3572.72" x2="659.36" y2="534.28" gradientUnits="userSpaceOnUse"><stop offset="0" stop-color="#dae3fe"/><stop offset="1" stop-color="#e9effd"/></linearGradient><linearGradient id="linear-gradient-2" x1="590.86" y1="1401.02" x2="801.34" y2="1401.02" xlink:href="#linear-gradient"/><linearGradient id="linear-gradient-3" x1="356.8" y1="1401" x2="566.84" y2="1401" xlink:href="#linear-gradient"/><linearGradient id="linear-gradient-4" x1="122.97" y1="1400.98" x2="332.57" y2="1400.98" xlink:href="#linear-gradient"/><linearGradient id="linear-gradient-5" x1="588.25" y1="1554.15" x2="798.36" y2="1554.15" xlink:href="#linear-gradient"/><linearGradient id="linear-gradient-6" x1="354.59" y1="1554.06" x2="564.27" y2="1554.06" xlink:href="#linear-gradient"/><linearGradient id="linear-gradient-7" x1="121.17" y1="1553.96" x2="330.41" y2="1553.96" xlink:href="#linear-gradient"/><linearGradient id="linear-gradient-8" x1="585.65" y1="1705.96" x2="795.39" y2="1705.96" xlink:href="#linear-gradient"/><linearGradient id="linear-gradient-9" x1="352.4" y1="1705.79" x2="561.7" y2="1705.79" xlink:href="#linear-gradient"/><linearGradient id="linear-gradient-10" x1="119.38" y1="1705.61" x2="328.25" y2="1705.61" xlink:href="#linear-gradient"/><linearGradient id="linear-gradient-11" x1="583.06" y1="1857.24" x2="792.43" y2="1857.24" xlink:href="#linear-gradient"/><linearGradient id="linear-gradient-12" x1="350.21" y1="1856.99" x2="559.15" y2="1856.99" xlink:href="#linear-gradient"/><linearGradient id="linear-gradient-13" x1="117.6" y1="1856.74" x2="326.11" y2="1856.74" xlink:href="#linear-gradient"/><linearGradient id="linear-gradient-14" x1="580.48" y1="2007.99" x2="789.48" y2="2007.99" xlink:href="#linear-gradient"/><linearGradient id="linear-gradient-15" x1="348.03" y1="2007.67" x2="556.61" y2="2007.67" xlink:href="#linear-gradient"/><linearGradient id="linear-gradient-16" x1="115.82" y1="2007.35" x2="323.97" y2="2007.35" xlink:href="#linear-gradient"/><linearGradient id="linear-gradient-17" x1="577.9" y1="2158.23" x2="786.54" y2="2158.23" xlink:href="#linear-gradient"/><linearGradient id="linear-gradient-18" x1="345.86" y1="2157.83" x2="554.07" y2="2157.83" xlink:href="#linear-gradient"/><linearGradient id="linear-gradient-19" x1="114.05" y1="2157.43" x2="321.84" y2="2157.43" xlink:href="#linear-gradient"/><linearGradient id="linear-gradient-20" x1="575.34" y1="2307.95" x2="783.61" y2="2307.95" xlink:href="#linear-gradient"/><linearGradient id="linear-gradient-21" x1="343.7" y1="2307.48" x2="551.55" y2="2307.48" xlink:href="#linear-gradient"/><linearGradient id="linear-gradient-22" x1="112.29" y1="2307" x2="319.71" y2="2307" xlink:href="#linear-gradient"/><linearGradient id="linear-gradient-23" x1="572.78" y1="2457.15" x2="780.7" y2="2457.15" xlink:href="#linear-gradient"/><linearGradient id="linear-gradient-24" x1="341.54" y1="2456.6" x2="549.03" y2="2456.6" xlink:href="#linear-gradient"/><linearGradient id="linear-gradient-25" x1="110.53" y1="2456.06" x2="317.59" y2="2456.06" xlink:href="#linear-gradient"/><linearGradient id="linear-gradient-26" x1="570.23" y1="2605.84" x2="777.79" y2="2605.84" xlink:href="#linear-gradient"/><linearGradient id="linear-gradient-27" x1="339.39" y1="2605.22" x2="546.52" y2="2605.22" xlink:href="#linear-gradient"/><linearGradient id="linear-gradient-28" x1="108.78" y1="2604.6" x2="315.48" y2="2604.6" xlink:href="#linear-gradient"/><linearGradient id="linear-gradient-29" x1="2273.26" y1="-1247" x2="1669.15" y2="2276.96" gradientUnits="userSpaceOnUse"><stop offset="0" stop-color="#4042e2"/><stop offset="1" stop-color="#4f52ff"/></linearGradient><linearGradient id="linear-gradient-30" x1="1243.96" y1="1665.08" x2="2312.19" y2="1665.08" xlink:href="#linear-gradient-29"/><linearGradient id="linear-gradient-31" x1="1861.26" y1="487.42" x2="2186.26" y2="-262.56" gradientTransform="translate(1003.56 -1055.86) rotate(45)" gradientUnits="userSpaceOnUse"><stop offset="0" stop-color="#09005d"/><stop offset="1" stop-color="#1a0f91"/></linearGradient><linearGradient id="linear-gradient-32" x1="1890.81" y1="973.28" x2="1159.42" y2="6042.58" gradientUnits="userSpaceOnUse"><stop offset="0" stop-color="#febbba"/><stop offset="1" stop-color="#ff928e"/></linearGradient><linearGradient id="linear-gradient-33" x1="1871.63" y1="970.51" x2="1140.24" y2="6039.81" xlink:href="#linear-gradient-32"/><linearGradient id="linear-gradient-34" x1="1913.39" y1="1549.8" x2="2985.57" y2="-581.96" gradientUnits="userSpaceOnUse"><stop offset="0" stop-color="#fe7062"/><stop offset="1" stop-color="#ff928e"/></linearGradient><linearGradient id="linear-gradient-35" x1="-1951.05" y1="2718.54" x2="-1832.45" y2="2718.54" gradientTransform="translate(2420.6)" xlink:href="#linear-gradient-31"/><linearGradient id="linear-gradient-36" x1="-1918.07" y1="2583.52" x2="-1940.72" y2="2781.23" gradientTransform="translate(2420.6)" xlink:href="#linear-gradient-32"/><linearGradient id="linear-gradient-37" x1="-1770.45" y1="2721.56" x2="-1599.72" y2="2721.56" gradientTransform="translate(2420.6)" xlink:href="#linear-gradient-31"/><linearGradient id="linear-gradient-38" x1="-1626.24" y1="2471.64" x2="-1648.89" y2="2669.36" gradientTransform="translate(2151.5 35.41) rotate(-3.61)" xlink:href="#linear-gradient-32"/><linearGradient id="linear-gradient-39" x1="-1749.72" y1="2770.04" x2="-1515.23" y2="1651.9" gradientTransform="matrix(-1, 0, 0, 1, -1097.03, 0)" xlink:href="#linear-gradient-31"/><linearGradient id="linear-gradient-40" x1="892.19" y1="1242.25" x2="374.05" y2="1813.87" xlink:href="#linear-gradient-29"/><linearGradient id="linear-gradient-41" x1="791.46" y1="1273.99" x2="36.18" y2="2660.26" xlink:href="#linear-gradient-29"/><linearGradient id="linear-gradient-42" x1="-1827.69" y1="1431.14" x2="-1775.07" y2="1287.46" gradientTransform="translate(2420.6)" xlink:href="#linear-gradient-32"/><linearGradient id="linear-gradient-43" x1="638.44" y1="968.02" x2="614" y2="1154.69" xlink:href="#linear-gradient-29"/><linearGradient id="linear-gradient-44" x1="681.2" y1="973.62" x2="656.75" y2="1160.29" xlink:href="#linear-gradient-29"/><linearGradient id="linear-gradient-45" x1="-1698.36" y1="1215.61" x2="-2011.86" y2="1465.3" gradientTransform="translate(2420.6)" xlink:href="#linear-gradient-32"/><linearGradient id="linear-gradient-46" x1="-1819.39" y1="1133.47" x2="-1675.7" y2="1318.47" gradientTransform="translate(2420.6)" xlink:href="#linear-gradient-31"/><linearGradient id="linear-gradient-47" x1="-1729.92" y1="1201.93" x2="-1884.2" y2="1319.98" gradientTransform="translate(2420.6)" xlink:href="#linear-gradient-32"/><linearGradient id="linear-gradient-48" x1="-2152.86" y1="1279.93" x2="-1826.2" y2="1562.1" gradientTransform="matrix(-1, 0, 0, 1, -1097.03, 0)" xlink:href="#linear-gradient-32"/><linearGradient id="linear-gradient-49" x1="-2159.67" y1="1306.23" x2="-1841.7" y2="1580.9" gradientTransform="matrix(-1, 0, 0, 1, -1097.03, 0)" xlink:href="#linear-gradient-32"/><linearGradient id="linear-gradient-50" x1="-2164.95" y1="1293.92" x2="-1838.29" y2="1576.1" gradientTransform="matrix(-1, 0, 0, 1, -1097.03, 0)" xlink:href="#linear-gradient-32"/><linearGradient id="linear-gradient-51" x1="59.47" y1="1389.4" x2="-529.18" y2="2624.28" gradientTransform="translate(-605.66 131.08) rotate(-62.63)" gradientUnits="userSpaceOnUse"><stop offset="0" stop-color="#e1473d"/><stop offset="1" stop-color="#e9605a"/></linearGradient><linearGradient id="linear-gradient-52" x1="3637.2" y1="-455.83" x2="3292.23" y2="230.55" gradientTransform="translate(-1852.27 2301.05) rotate(-15.16)" xlink:href="#linear-gradient-34"/><linearGradient id="linear-gradient-53" x1="-386.81" y1="1721.68" x2="122.66" y2="2916.61" gradientTransform="translate(-605.66 131.08) rotate(-62.63)" gradientUnits="userSpaceOnUse"><stop offset="0" stop-color="#ff9085"/><stop offset="1" stop-color="#fb6fbb"/></linearGradient><linearGradient id="linear-gradient-54" x1="1334.66" y1="1216.88" x2="1648" y2="420.2" xlink:href="#linear-gradient-34"/><linearGradient id="linear-gradient-55" x1="1507.26" y1="369.27" x2="1453.93" y2="472.61" xlink:href="#linear-gradient-34"/><linearGradient id="linear-gradient-56" x1="-1288.46" y1="3588.92" x2="-1682.72" y2="4273.98" gradientTransform="translate(938.39 -2286.77) rotate(-18.59)" xlink:href="#linear-gradient-32"/></defs><g class="cls-1"><g id="Layer_2" data-name="Layer 2"><g id="Illustration"><path class="cls-2" d="M2442.65,2367.64c-56.73,58.79-110.41,96.7-152.83,126.65-498.55,352.1-1088.47,249.46-1213.84,224.4-185.14-37-543-108.55-801.74-408C-117.2,1857.57-56.25,1143.74,247.38,672.53,302.92,586.34,596.29,108,1192.56,31.23c360.86-46.43,781.5,47.21,1086.12,298.41C2918.1,856.93,2872.58,1922.14,2442.65,2367.64Z"/><path class="cls-3" d="M528.62,787c.26-13.33,11.45-24.05,25.17-24.05h832.26c13.91,0,28.68,11.05,28.68,24.56V2673.8c0,10.08-5.88,19.75-13.23,26.87s-18.19,11.1-28.57,11.07l-841.37-2.23a40.1,40.1,0,0,1-28-11.4,37.49,37.49,0,0,1-11.25-27.27Z"/><g class="cls-4"><polygon class="cls-5" points="1006.58 896.58 1278.83 895.67 1278.72 862.59 1006.78 863.42 1006.58 896.58"/><polygon class="cls-5" points="1005.83 1018.43 1279.2 1017.22 1279.1 983.87 1006.03 985 1005.83 1018.43"/><polygon class="cls-5" points="1005.08 1141.29 1279.58 1139.78 1279.47 1106.15 1005.28 1107.58 1005.08 1141.29"/><polygon class="cls-5" points="1004.32 1265.17 1279.95 1263.36 1279.85 1229.45 1004.53 1231.18 1004.32 1265.17"/><polygon class="cls-5" points="1003.55 1390.09 1280.34 1387.95 1280.23 1353.77 1003.76 1355.81 1003.55 1390.09"/><polygon class="cls-5" points="1002 1643.06 1281.11 1640.29 1281.01 1605.52 1002.22 1608.2 1002 1643.06"/><polygon class="cls-5" points="999.63 2030.59 1282.3 2026.82 1282.19 1991.16 999.85 1994.84 999.63 2030.59"/><polygon class="cls-5" points="1002.78 1516.04 1280.72 1513.6 1280.62 1479.12 1002.99 1481.48 1002.78 1516.04"/><polygon class="cls-5" points="1001.22 1771.14 1281.5 1768.05 1281.4 1732.99 1001.43 1736 1001.22 1771.14"/><polygon class="cls-5" points="1000.43 1900.32 1281.9 1896.89 1281.79 1861.53 1000.64 1864.87 1000.43 1900.32"/><polygon class="cls-5" points="998.83 2161.97 1282.7 2157.86 1282.59 2121.9 999.05 2125.91 998.83 2161.97"/><polygon class="cls-5" points="998.01 2294.48 1283.11 2290.02 1282.99 2253.76 998.24 2258.12 998.01 2294.48"/><polygon class="cls-5" points="997.19 2428.14 1283.52 2423.33 1283.4 2386.74 997.42 2391.46 997.19 2428.14"/><polygon class="cls-5" points="996.37 2562.95 1283.93 2557.78 1283.82 2520.88 996.6 2525.95 996.37 2562.95"/><polygon class="cls-5" points="649.63 897.78 923.59 896.86 923.89 863.68 650.24 864.52 649.63 897.78"/><polygon class="cls-5" points="647.41 1020.02 922.5 1018.8 922.8 985.35 648.02 986.48 647.41 1020.02"/><polygon class="cls-5" points="645.17 1143.28 921.41 1141.76 921.71 1108.02 645.79 1109.46 645.17 1143.28"/><polygon class="cls-5" points="642.91 1267.56 920.3 1265.73 920.6 1231.71 643.53 1233.46 642.91 1267.56"/><polygon class="cls-5" points="640.63 1392.88 919.18 1390.73 919.49 1356.43 641.26 1358.49 640.63 1392.88"/><polygon class="cls-5" points="636.02 1646.69 916.92 1643.9 917.24 1609.02 636.66 1611.71 636.02 1646.69"/><polygon class="cls-5" points="628.95 2035.53 913.46 2031.73 913.78 1995.96 629.6 1999.65 628.95 2035.53"/><polygon class="cls-5" points="638.34 1519.25 918.06 1516.79 918.37 1482.2 638.97 1484.57 638.34 1519.25"/><polygon class="cls-5" points="633.68 1775.2 915.78 1772.09 916.09 1736.91 634.33 1739.94 633.68 1775.2"/><polygon class="cls-5" points="631.33 1904.81 914.63 1901.36 914.94 1865.89 631.97 1869.24 631.33 1904.81"/><polygon class="cls-5" points="626.55 2167.36 912.29 2163.22 912.61 2127.14 627.21 2131.18 626.55 2167.36"/><polygon class="cls-5" points="624.14 2300.33 911.1 2295.84 911.43 2259.45 624.8 2263.84 624.14 2300.33"/><polygon class="cls-5" points="621.7 2434.45 909.91 2429.61 910.24 2392.9 622.37 2397.65 621.7 2434.45"/><polygon class="cls-5" points="619.24 2569.74 908.71 2564.53 909.04 2527.5 619.91 2532.61 619.24 2569.74"/></g><path class="cls-3" d="M51,1307.26c.37-15.41,16.19-28.09,35.58-28.09h733c19.65,0,39,13.34,39,29V2704c0,7.52-5.45,14.72-12.14,20s-16.61,8.27-26.07,8.25L54,2730.65c-9.53,0-18.87-3.08-25.54-8.5s-10.43-12.9-10.25-20.48Z"/><polygon class="cls-6" points="590.86 1443.66 799.68 1443.44 801.34 1358.38 592.31 1358.38 590.86 1443.66"/><polygon class="cls-7" points="356.8 1443.62 565.41 1443.39 566.84 1358.38 358.02 1358.38 356.8 1443.62"/><polygon class="cls-8" points="122.97 1443.57 331.37 1443.35 332.57 1358.38 123.97 1358.38 122.97 1443.57"/><polygon class="cls-9" points="588.25 1596.33 796.71 1596.44 798.36 1511.94 589.7 1511.87 588.25 1596.33"/><polygon class="cls-10" points="354.59 1596.21 562.84 1596.32 564.27 1511.86 355.82 1511.79 354.59 1596.21"/><polygon class="cls-11" points="121.17 1596.1 329.21 1596.2 330.41 1511.79 122.17 1511.72 121.17 1596.1"/><polygon class="cls-12" points="585.65 1747.96 793.74 1748.13 795.39 1663.92 587.09 1663.79 585.65 1747.96"/><polygon class="cls-13" points="352.4 1747.76 560.28 1747.94 561.7 1663.77 353.62 1663.63 352.4 1747.76"/><polygon class="cls-14" points="119.38 1747.57 327.06 1747.74 328.25 1663.62 120.38 1663.48 119.38 1747.57"/><polygon class="cls-15" points="583.06 1899.06 790.79 1899.3 792.43 1815.38 584.5 1815.18 583.06 1899.06"/><polygon class="cls-16" points="350.21 1898.79 557.74 1899.03 559.15 1815.15 351.43 1814.95 350.21 1898.79"/><polygon class="cls-17" points="117.6 1898.52 324.92 1898.76 326.11 1814.93 118.59 1814.72 117.6 1898.52"/><polygon class="cls-18" points="580.48 2049.64 787.85 2049.94 789.48 1966.32 581.91 1966.05 580.48 2049.64"/><polygon class="cls-19" points="348.03 2049.29 555.2 2049.6 556.61 1966.01 349.24 1965.74 348.03 2049.29"/><polygon class="cls-20" points="115.83 2048.95 322.78 2049.25 323.97 1965.71 116.81 1965.44 115.83 2048.95"/><polygon class="cls-21" points="577.9 2199.69 784.91 2200.07 786.54 2116.73 579.33 2116.39 577.9 2199.69"/><polygon class="cls-22" points="345.86 2199.28 552.67 2199.65 554.07 2116.35 347.07 2116.01 345.86 2199.28"/><polygon class="cls-23" points="114.05 2198.86 320.65 2199.23 321.84 2115.97 115.04 2115.64 114.05 2198.86"/><polygon class="cls-24" points="575.34 2349.24 781.99 2349.68 783.61 2266.62 576.76 2266.22 575.34 2349.24"/><polygon class="cls-25" points="343.7 2348.74 550.15 2349.18 551.55 2266.17 344.9 2265.77 343.7 2348.74"/><polygon class="cls-26" points="112.29 2348.25 318.53 2348.69 319.71 2265.72 113.27 2265.32 112.29 2348.25"/><polygon class="cls-27" points="572.78 2498.26 779.08 2498.77 780.7 2416 574.2 2415.53 572.78 2498.26"/><polygon class="cls-28" points="341.54 2497.7 547.63 2498.2 549.03 2415.48 342.74 2415.01 341.54 2497.7"/><polygon class="cls-29" points="110.53 2497.13 316.42 2497.64 317.59 2414.95 111.51 2414.48 110.53 2497.13"/><polygon class="cls-30" points="570.23 2646.78 776.18 2647.35 777.79 2564.87 571.65 2564.33 570.23 2646.78"/><polygon class="cls-31" points="339.39 2646.14 545.13 2646.71 546.52 2564.27 340.58 2563.74 339.39 2646.14"/><polygon class="cls-32" points="108.78 2645.5 314.31 2646.07 315.48 2563.67 109.75 2563.14 108.78 2645.5"/><path class="cls-3" d="M1964.42,1340.59c.36-15.41,16.18-28.09,35.58-28.09h733c19.65,0,38.95,13.34,38.95,29V2737.37c0,7.51-5.44,14.72-12.14,20s-16.61,8.28-26.06,8.26L1967.35,2764c-9.54,0-18.87-3.08-25.54-8.49s-10.44-12.91-10.26-20.48Z"/><g class="cls-33"><polygon class="cls-34" points="2504.24 1476.99 2713.06 1476.77 2714.72 1391.71 2505.7 1391.71 2504.24 1476.99"/><polygon class="cls-34" points="2270.18 1476.95 2478.79 1476.73 2480.22 1391.71 2271.41 1391.71 2270.18 1476.95"/><polygon class="cls-34" points="2036.35 1476.91 2244.75 1476.69 2245.95 1391.71 2037.35 1391.71 2036.35 1476.91"/><polygon class="cls-34" points="2501.63 1629.67 2710.09 1629.77 2711.74 1545.27 2503.08 1545.2 2501.63 1629.67"/><polygon class="cls-34" points="2267.98 1629.55 2476.23 1629.65 2477.65 1545.2 2269.2 1545.13 2267.98 1629.55"/><polygon class="cls-34" points="2034.56 1629.43 2242.59 1629.54 2243.79 1545.12 2035.55 1545.05 2034.56 1629.43"/><polygon class="cls-34" points="2499.03 1781.29 2707.13 1781.47 2708.77 1697.26 2500.48 1697.12 2499.03 1781.29"/><polygon class="cls-34" points="2265.78 1781.1 2473.67 1781.27 2475.09 1697.11 2267 1696.97 2265.78 1781.1"/><polygon class="cls-34" points="2032.77 1780.9 2240.45 1781.08 2241.64 1696.95 2033.76 1696.82 2032.77 1780.9"/><polygon class="cls-34" points="2496.44 1932.39 2704.17 1932.63 2705.81 1848.72 2497.88 1848.51 2496.44 1932.39"/><polygon class="cls-34" points="2263.6 1932.12 2471.12 1932.36 2472.54 1848.49 2264.81 1848.28 2263.6 1932.12"/><polygon class="cls-34" points="2030.99 1931.85 2238.3 1932.09 2239.49 1848.26 2031.98 1848.06 2030.99 1931.85"/><polygon class="cls-34" points="2493.86 2082.97 2701.23 2083.28 2702.86 1999.65 2495.29 1999.38 2493.86 2082.97"/><polygon class="cls-34" points="2261.42 2082.63 2468.58 2082.93 2469.99 1999.35 2262.63 1999.08 2261.42 2082.63"/><polygon class="cls-34" points="2029.21 2082.28 2236.17 2082.59 2237.35 1999.04 2030.2 1998.77 2029.21 2082.28"/><polygon class="cls-34" points="2491.29 2233.03 2698.3 2233.4 2699.93 2150.06 2492.72 2149.73 2491.29 2233.03"/><polygon class="cls-34" points="2259.25 2232.61 2466.05 2232.98 2467.46 2149.69 2260.45 2149.35 2259.25 2232.61"/><polygon class="cls-34" points="2027.44 2232.19 2234.04 2232.56 2235.22 2149.31 2028.42 2148.97 2027.44 2232.19"/><polygon class="cls-34" points="2488.72 2382.57 2695.38 2383.01 2697 2299.96 2490.14 2299.55 2488.72 2382.57"/><polygon class="cls-34" points="2257.08 2382.08 2463.53 2382.52 2464.93 2299.51 2258.28 2299.1 2257.08 2382.08"/><polygon class="cls-34" points="2025.67 2381.59 2231.92 2382.02 2233.1 2299.05 2026.65 2298.65 2025.67 2381.59"/><polygon class="cls-34" points="2486.16 2531.6 2692.46 2532.1 2694.08 2449.34 2487.58 2448.87 2486.16 2531.6"/><polygon class="cls-34" points="2254.93 2531.03 2461.02 2531.53 2462.41 2448.81 2256.12 2448.34 2254.93 2531.03"/><polygon class="cls-34" points="2023.92 2530.47 2229.8 2530.97 2230.98 2448.28 2024.89 2447.82 2023.92 2530.47"/><polygon class="cls-34" points="2483.62 2680.11 2689.56 2680.68 2691.17 2598.2 2485.03 2597.67 2483.62 2680.11"/><polygon class="cls-34" points="2252.78 2679.47 2458.51 2680.04 2459.91 2597.6 2253.97 2597.07 2252.78 2679.47"/><polygon class="cls-34" points="2022.16 2678.84 2227.7 2679.41 2228.87 2597 2023.14 2596.47 2022.16 2678.84"/></g><path class="cls-35" d="M1235.71,1720.32c-59.82-187.82-175.57-337.51-312.67-425.51-122.57-78.67-210.87-201.18-243.56-342.69q-5.16-22.32-12.27-44.71c-72-225.89-269.29-364.74-440.77-310.12S-25.73,879.3,46.22,1105.2a552.68,552.68,0,0,0,58.58,126.71c76.3,121.23,106.16,266.64,78.08,407.27-25.09,125.68-18.28,267.19,26.57,408,66.89,210,203.7,372.37,362.12,454.1A550.75,550.75,0,0,1,730.26,2624c74.35,83.48,179.14,122.71,275.41,92,103.86-33.08,168.74-138.25,173.41-260.95,2.64-69.44,19-137.5,45.58-201.84C1287.48,2101.37,1296.2,1910.22,1235.71,1720.32Z"/><path class="cls-36" d="M363,818.47c70,142.16,135.25,286.45,199,431.43,16,36.24,31.35,72.73,46.84,109.16l23.23,54.67,22.78,54.86c15,36.63,30.59,73.05,45.21,109.85L744,1688.85c28.31,74,57.24,147.7,84.17,222.21,13.51,37.23,27.75,74.18,40.51,111.69l38.78,112.32c50.18,150.27,96.59,301.88,135.21,455.55l-6.63,1.74-33.29-113.86L994.5,2450l-9-28.27-18-56.5-17.94-56.52c-5.95-18.85-12.59-37.48-18.86-56.23-12.77-37.41-25.25-74.93-38.27-112.26-53-149-108.09-297.28-166.19-444.41-29.62-73.34-58.6-146.93-88.73-220.08L615,1420.84l-22.91-54.73c-15.25-36.49-30.5-73-46.12-109.33q-45.93-109.41-93.51-218.15-47-109-95.67-217.23Z"/><path class="cls-37" d="M1736.17,1347c-28-205.13-120.37-381-245.85-496.82-112.17-103.58-181.17-246.31-189.48-398.62q-1.32-24-4.63-48.46C1262.59,156.37,1084.17-23,897.71,2.4S587.34,248.41,621,495.11A583.07,583.07,0,0,0,658.6,636.8c56.87,139.22,61.57,295,7.42,435.42-48.38,125.45-66.74,273.06-45.78,426.85,31.27,229.37,143.11,422.1,291.66,535.35a578.43,578.43,0,0,1,141.5,155.7c61.63,99.82,162.55,159.4,267.24,145.14,112.93-15.4,198.63-112.42,225.44-238.5,15.18-71.34,44.2-138.78,83.15-200.52C1721.19,1750.51,1764.44,1554.37,1736.17,1347Z"/><path class="cls-36" d="M998.77,255.94c46.58,159.73,88,320.82,127.72,482.34,10,40.38,19.25,80.91,28.68,121.41l14.13,60.76,13.63,60.87c8.93,40.61,18.42,81.11,26.89,121.83l25.41,122.15c15.9,81.65,32.49,163.16,46.87,245.1,7.25,41,15.3,81.77,21.72,122.88l19.81,123.21c24.76,164.53,45.4,329.77,57.63,495.72l-7.15.6L1360.23,2089l-3.4-30.95-4.18-30.86-8.46-61.72-8.35-61.71c-2.75-20.57-6.26-41-9.35-61.58-6.45-41-12.58-82.09-19.3-123.06-27.94-163.73-58.06-327.09-91.54-489.82-17.37-81.23-34-162.6-52-243.72l-13.28-60.87-13.79-60.76c-9.17-40.51-18.34-81-27.92-121.45Q1081,621,1051.48,499.89c-19.28-80.82-39.33-161.48-59.63-242Z"/><rect class="cls-38" x="942.5" y="511.29" width="1673.72" height="2245.56" rx="23.03"/><rect class="cls-37" x="1147.85" y="848.65" width="1259.45" height="1612.4" rx="76.01"/><rect class="cls-39" x="1243.96" y="981.29" width="1068.23" height="1367.59" rx="22.8"/><circle class="cls-40" cx="1776.31" cy="683.47" r="50.07" transform="translate(36.98 1456.22) rotate(-45)"/><path class="cls-41" d="M2099.79,1491.78l-644.17,10.71c-49,.82-88.92,38.94-88.92,85.15v405.68c0,46.21,39.89,82.07,88.92,80.1l644.17-25.87c46.27-1.85,83.65-39.56,83.65-84.22V1571.26C2183.44,1526.6,2146.06,1491,2099.79,1491.78Z"/><path class="cls-42" d="M2132.39,1418.41c-19.51.29-35.35-14.76-35.35-33.63V1296c0-89.07-75.34-161.32-168.61-161l-209.85.61c-95.68.27-174.07,74.66-174.07,165.81v90.86c0,19.31-16.61,35.21-37.14,35.51s-37.24-15.14-37.24-34.51v-91.14c0-130.1,112.08-235.94,248.45-235.94h209.85c132.5,0,239.21,102.8,239.21,229.17v88.52C2167.64,1402.64,2151.87,1418.12,2132.39,1418.41Z"/><path class="cls-43" d="M1881.92,1716.61c0-45.08-39.35-80.48-87.2-77.23-42.31,2.88-77.29,36.76-79.58,77.22-1.77,31.39,15.48,58.53,41.7,72.25a28.29,28.29,0,0,1,14.53,30.31L1753,1922.37c-2.34,13.15,8.22,24.69,22.12,24.2l47.27-1.7c13.83-.49,24.32-12.75,22-25.68L1826,1816.94c-2.2-12.2,4.14-24.32,15.33-31C1865.64,1771.4,1881.92,1745.61,1881.92,1716.61Z"/><path class="cls-44" d="M588.15,2760.77a10.7,10.7,0,0,0-.27-2.68c-13.36-53-79.66-85.94-79.66-85.94L482,2674.21c-15.11,46.67-13.17,75.3-10.74,88.05.07.36.17.7.27,1C493.15,2765.24,537.76,2766.51,588.15,2760.77Z"/><path class="cls-35" d="M471.48,2763.3a11.37,11.37,0,0,0,8.34,8.42c30.82,6.49,79.82,1.27,100.4-1.42,4.54-.59,7.85-4.79,7.93-9.53C537.76,2766.51,493.15,2765.24,471.48,2763.3Z"/><path class="cls-45" d="M471.38,2635.07l11.13,53.57a8.77,8.77,0,0,0,7.48,7.21,74.31,74.31,0,0,0,17.24-.28c5.74-.84,9.74-6.67,8.72-12.93l-7.73-47.57Z"/><path class="cls-35" d="M701.93,2762.63c-29-.82-44-4.23-51.78-7.4,0,2.88,0,5.82.09,8.86a5.74,5.74,0,0,0,5.47,5.83l159.31-1c5.08,0,8.06-5.93,5.85-10.6C800,2760,746.78,2763.88,701.93,2762.63Z"/><path class="cls-46" d="M820.87,2758.29a7.27,7.27,0,0,0-.63-1.2c-14.07-19.66-49.9-58.8-120.71-75.78l-34-1.07s-15.13,26.29-15.41,75c7.76,3.17,22.76,6.58,51.78,7.4C746.78,2763.88,800,2760,820.87,2758.29Z"/><path class="cls-47" d="M657.75,2630.34c.53,2.5,7.6,40.61,10.34,55.39a7.39,7.39,0,0,0,6.64,6.27c5.82.33,15.2.37,23.27-1.82,4.35-1.19,7.27-5.62,7-10.55l-3.8-60.29Z"/><path class="cls-48" d="M632,1926.59s46.73,321.1,80.45,703.2c.63,7.11-5.05,13.31-12,14.78-10.3,2.17-25.44,4.74-38,4.39A14.07,14.07,0,0,1,649,2637.21c-11.49-67.37-93.46-428.94-115-508.51,0,0-24.71,338-16.81,513.39a8.32,8.32,0,0,1-7.33,8.65,139.31,139.31,0,0,1-30.5-.09,11.13,11.13,0,0,1-9.91-9.44c-8.18-57-55.28-396.4-53.27-640.89.11-13.78,16.17-127.06,16.17-127.06Z"/><path class="cls-49" d="M650.11,1386.61l6.26,168a462.47,462.47,0,0,0,50.8,14.42c10.07-32.44,32.26-72.26,50.43-101.87C690.85,1443.6,650.11,1386.61,650.11,1386.61Z"/><path class="cls-50" d="M425.38,1945.1A13.22,13.22,0,0,1,416.7,1934c-6.21-60.28-36.3-434.09,153.65-587.86,0,0,10.89-28.5,100.43,41.56s41.6,143.49,20.16,244.78C665,1755,619.49,1855.18,639.63,1930.6a10.46,10.46,0,0,1-6.41,12.54C563.67,1968.77,494.39,1969.62,425.38,1945.1Z"/><path class="cls-51" d="M644.44,1234.11c-.06,5.31-75.91,113.05-75.91,113.05s13.62,26.81,78.61,48.58l56.11-115.35Z"/><path class="cls-52" d="M606.87,1602.74a2.41,2.41,0,0,1-1.38-.42c-60.59-40.94-89.09-107-89.38-107.68a2.46,2.46,0,0,1,4.54-1.92c.28.65,28.25,65.42,87.6,105.52a2.46,2.46,0,0,1-1.38,4.5Z"/><path class="cls-53" d="M697.12,1511.16a2.46,2.46,0,0,1-2.07-1.13c-.19-.29-18.7-29.1-53.95-92.23-10.85-19.42-25.09-31.71-42.35-36.54-28.59-8-56.13,7.34-56.41,7.49a2.46,2.46,0,0,1-2.43-4.28c1.19-.67,29.52-16.53,60.12-8,18.59,5.18,33.86,18.27,45.37,38.88,35.17,63,53.61,91.69,53.79,92a2.45,2.45,0,0,1-.74,3.4A2.41,2.41,0,0,1,697.12,1511.16Z"/><path class="cls-54" d="M704.16,1172.37s27,62,28.8,94.54,8.82,53.65-28.8,60.21-69.32-12.19-86.49-44.61c0,0-26.9-49.94-20.87-70.4S704.16,1172.37,704.16,1172.37Z"/><path class="cls-55" d="M630.53,1259.21l2.14-1a5.16,5.16,0,0,0,2.52-7.09c-5.3-10.25-15.65-33.74-2.29-39.22,17.22-7.07,85.43-21,100.15-45.18,14.15-23.26,1.61-53.29-17.22-61.83a2.58,2.58,0,0,0-3.39,1.11l-1.57,3a2.56,2.56,0,0,1-4.72-.49h0a2.54,2.54,0,0,0-4.6-.66c-4.53,7.25-16.74,19-49.4,25-46.42,8.57-77.11,27.35-77.87,59.43a2.57,2.57,0,0,1-4,2.11c-3.42-2.09-8.91-3.07-16.24,3.09-12.75,10.72-7.53,38.52,20.42,61.4a2.54,2.54,0,0,1-.13,4.09c-5.06,3.3-12.61,11.15,7,21.61,20.24,10.82,35.35,9.93,41.17,9a2.54,2.54,0,0,0,2.06-3.08l-6.21-28.19a2.56,2.56,0,0,1,2.5-3.1Z"/><path class="cls-56" d="M631.69,1265.16s-10.29-39.61-28.05-28.5,9.22,44.37,23.49,45.85Z"/><path class="cls-57" d="M981.16,1374s-13.53-24-12.67-35.63-6.4-28.77,1.33-27.5,9.32.23,11.42,14.22S1007.72,1400.11,981.16,1374Z"/><path class="cls-58" d="M983.71,1335.84l-.32,47.91c-91.57,98.87-165.68,104.69-225.79,83.44-18.17,29.61-40.36,69.43-50.43,101.87,244.54,53.91,302.12-170.9,302.12-170.9,33.12-13.71,39.8-21.74,38.37-30.73Z"/><path class="cls-59" d="M1054.13,1288.31c-7.82-3.17-23.11-32.33-26-22.74s1.24,22.74,0,26.82-20.3,51-16.5,61.43c2.75,7.52,17.89,6.41,20.2,18.72a7.87,7.87,0,0,0,15.64,0C1047.74,1370.91,1061.94,1291.48,1054.13,1288.31Z"/><path class="cls-60" d="M804.53,1188.52c-61.75,122.13-12.8,271.19,109.33,332.94,99.26,50.19,216.32,27.24,289.83-48.68L1628,1687.32a23.08,23.08,0,0,0,22.21-.77l41.5-24.72a24.28,24.28,0,0,0,2-1.38c.19-.14.36-.29.54-.43.48-.39,1-.79,1.39-1.21l.45-.43a22.9,22.9,0,0,0,1.57-1.7l0,0a23.06,23.06,0,0,0,3.61-23.19l-33.72-84.53a23.07,23.07,0,0,0-11-12l-42.5-21.49-11.25,22.24-36.51-18.46,11.24-22.24-34.15-17.27-10.35,20.46-44.38-22.43,10.35-20.47-16.53-8.36-5.33,10.54L1440,1440.6l5.33-10.54-28.94-14.62-11.24,22.24-20.67-10.45,11.25-22.24-17.91-9.06-11.25,22.25-35.82-18.12,11.24-22.24-50.35-25.46h0l-21.56-10.9c17.57-104.21-33.34-212.08-132.61-262.27C1015.34,1017.44,866.28,1066.39,804.53,1188.52Zm144.57,16.87a50.18,50.18,0,1,1-67.41,22.14A50.18,50.18,0,0,1,949.1,1205.39Z"/><path class="cls-61" d="M1148.48,1263.36l201.15,101.71-11.24,22.24,35.82,18.11,11.24-22.24,17.92,9-11.25,22.25,20.67,10.45,11.24-22.25,28.94,14.63-5.33,10.53,37.2,18.81,5.33-10.53,16.53,8.36-10.35,20.46,44.38,22.44,10.34-20.47,34.16,17.27L1574,1506.43l36.51,18.46,11.24-22.24,42.51,21.48a23.15,23.15,0,0,1,11,12l33.72,84.54a23.08,23.08,0,0,1-9.62,28.37l-41.5,24.72a23.09,23.09,0,0,1-22.22.77l-512.23-259Z"/><path class="cls-62" d="M921.5,1508.71c122.13,61.74,271.19,12.8,332.94-109.33s12.8-271.19-109.33-332.94-271.19-12.8-332.94,109.33S799.37,1447,921.5,1508.71Zm-10-226.52a50.17,50.17,0,1,1,67.42-22.13A50.17,50.17,0,0,1,911.46,1282.19Z"/><path class="cls-63" d="M1211.32,1460l424.33,214.54a23.09,23.09,0,0,0,22.22-.77l41.5-24.72a23,23,0,0,0,11-16.85c-38.68-41.9-406.29-202.43-420-235.47-4.89-11.75-5.73-29.55,8.92-57.15l-21.56-10.9c17.57-104.21-33.35-212.08-132.61-262.27-122.13-61.75-271.19-12.8-332.94,109.33S799.37,1447,921.5,1508.71C1020.76,1558.89,1137.82,1536,1211.32,1460ZM956.74,1192.64a50.17,50.17,0,1,1-67.42,22.14A50.18,50.18,0,0,1,956.74,1192.64Z"/><path class="cls-64" d="M943.44,1465.31c98.16,49.63,218,10.28,267.6-87.88s10.28-218-87.88-267.59-218-10.29-267.59,87.87S845.28,1415.68,943.44,1465.31Zm-32-183.12a50.17,50.17,0,1,1,67.42-22.13A50.17,50.17,0,0,1,911.46,1282.19Z"/><path class="cls-65" d="M606.87,1602.74s233.35,78.12,363.87-21.26a37,37,0,0,1,28.35-7.21l49.87,8.12a39.88,39.88,0,0,0,45.38-30.87c2.57-11.82,3.81-24.75,1.19-35.85l-94.14-5.68,2.7-12.21s-41.61,10.17-42.45,42.73c0,0-97.59,63.93-275.6-35.3C686,1505.21,616.72,1559.45,606.87,1602.74Z"/><g class="cls-66"><path class="cls-35" d="M2409.21,432.85a9.85,9.85,0,0,1-9.43-10.25c.43-10.55.41-21.28-.06-31.89a9.84,9.84,0,0,1,9.21-10.26h.19a9.83,9.83,0,0,1,10.27,9.4c.49,11.16.52,22.46.06,33.57a9.85,9.85,0,0,1-9.2,9.42A9,9,0,0,1,2409.21,432.85Zm-15.33-93.62c-1.91-10.45-4.28-20.9-7.06-31.1a9.84,9.84,0,1,1,19-5.17c2.93,10.72,5.43,21.73,7.44,32.72a9.84,9.84,0,0,1-7.91,11.45c-.39.07-.78.12-1.16.15A9.86,9.86,0,0,1,2393.88,339.23Zm-24.12-80c-4.18-9.73-8.83-19.39-13.83-28.73a9.84,9.84,0,0,1,17.36-9.29c5.26,9.83,10.16,20,14.56,30.25a9.84,9.84,0,1,1-18.09,7.77Zm-41.41-72.58c-6.26-8.56-12.95-16.95-19.91-24.93a9.85,9.85,0,1,1,14.85-12.93c7.32,8.4,14.37,17.23,20.95,26.23a9.85,9.85,0,0,1-2.14,13.76,9.72,9.72,0,0,1-5.17,1.88A9.83,9.83,0,0,1,2328.35,186.66Zm-56.55-61.55c-8-6.94-16.37-13.64-24.94-19.9a9.85,9.85,0,1,1,11.63-15.89c9,6.59,17.84,13.63,26.23,20.93a9.85,9.85,0,1,1-12.92,14.86ZM2203,77.61c-9.33-5-19-9.68-28.71-13.89a9.84,9.84,0,0,1,7.81-18.07c10.24,4.42,20.4,9.34,30.22,14.61A9.85,9.85,0,0,1,2203,77.61ZM1837.46,73a9.85,9.85,0,0,1,4.06-13.32c9.83-5.24,20-10.12,30.29-14.51a9.85,9.85,0,0,1,7.73,18.11c-9.75,4.17-19.42,8.8-28.76,13.78A9.84,9.84,0,0,1,1837.46,73Zm288.05-26.47c-10.2-2.81-20.65-5.21-31.06-7.13A9.85,9.85,0,0,1,2098,20.05c11,2,22,4.56,32.71,7.51a9.85,9.85,0,0,1-2,19.33A10,10,0,0,1,2125.51,46.55Zm-209.1-7.15a9.85,9.85,0,0,1,6.93-12.08c10.76-2.9,21.78-5.38,32.75-7.37a9.84,9.84,0,1,1,3.52,19.37c-10.44,1.89-20.91,4.25-31.13,7a9.56,9.56,0,0,1-2,.32A9.85,9.85,0,0,1,1916.41,39.4ZM2043,33.6c-10.57-.46-21.29-.46-31.88,0a9.84,9.84,0,0,1-1-19.66h.21c11.15-.48,22.44-.48,33.57,0a9.84,9.84,0,0,1,.21,19.66A9.33,9.33,0,0,1,2043,33.6Z"/><path class="cls-35" d="M1789,116.14a9.85,9.85,0,0,0,5.49-2.12c4-3.15,8.08-6.28,12.21-9.29a9.84,9.84,0,1,0-11.61-15.9c-4.34,3.16-8.66,6.45-12.84,9.77a9.85,9.85,0,0,0,6.75,17.54Z"/></g><g class="cls-66"><path class="cls-35" d="M1645.44,379.76a9.83,9.83,0,0,0,9.16-8.89c.49-5.05,1.08-10.18,1.78-15.23a9.85,9.85,0,1,0-19.51-2.69c-.73,5.33-1.36,10.73-1.87,16.05a9.85,9.85,0,0,0,8.86,10.74A10.45,10.45,0,0,0,1645.44,379.76Z"/><path class="cls-35" d="M2031.65,800.07a9.85,9.85,0,1,1-.28-19.69c10.35-.15,20.85-.74,31.34-1.76a9.85,9.85,0,1,1,1.91,19.6q-6.81.66-13.6,1.1C2044.57,799.73,2038.05,800,2031.65,800.07Zm74-18a9.83,9.83,0,0,1,7.31-11.84c10.15-2.41,20.32-5.27,30.21-8.51a9.84,9.84,0,1,1,6.13,18.7c-10.41,3.42-21.11,6.43-31.8,9a9.66,9.66,0,0,1-1.66.25A9.84,9.84,0,0,1,2105.7,782.1Zm-127.62,15.07c-10.87-1.34-21.84-3.17-32.59-5.43a9.85,9.85,0,1,1,4.06-19.27c10.21,2.15,20.61,3.88,30.94,5.15a9.85,9.85,0,0,1-.57,19.6A10.34,10.34,0,0,1,1978.08,797.17Zm207.84-41.41a9.85,9.85,0,0,1,4.53-13.17c9.37-4.57,18.65-9.6,27.59-14.94a9.84,9.84,0,1,1,10.1,16.9c-9.42,5.62-19.19,10.92-29,15.73a9.81,9.81,0,0,1-13.17-4.52Zm-292,21.37c-10.3-3.7-20.59-7.89-30.58-12.46a9.84,9.84,0,0,1,8.18-17.91c9.49,4.34,19.27,8.32,29,11.83a9.85,9.85,0,0,1-2.7,19.1A10,10,0,0,1,1893.91,777.13Zm-77.73-38c-9.27-5.87-18.4-12.21-27.13-18.82a9.85,9.85,0,0,1,11.89-15.7c8.3,6.29,17,12.31,25.78,17.89a9.84,9.84,0,0,1-4.65,18.14A9.74,9.74,0,0,1,1816.18,739.11Zm-67.6-54.05c-7.77-7.76-15.31-15.93-22.39-24.29a9.84,9.84,0,0,1,15-12.73c6.73,8,13.89,15.71,21.28,23.08a9.85,9.85,0,1,1-13.91,13.94Zm-54.2-67.51c-5.89-9.27-11.45-18.9-16.53-28.62a9.84,9.84,0,0,1,17.45-9.11c4.82,9.22,10.1,18.37,15.7,27.17a9.85,9.85,0,0,1-16.62,10.56Zm-38.06-77.81c-3.69-10.32-7-20.92-9.81-31.53a9.85,9.85,0,1,1,19-5.06c2.68,10.08,5.81,20.16,9.32,30a9.86,9.86,0,0,1-5.95,12.59,10,10,0,0,1-2.7.56A9.86,9.86,0,0,1,1656.32,539.74Zm-20-84.19c-1-8-1.77-16.15-2.28-24.19q-.27-4.37-.45-8.71A9.73,9.73,0,0,1,1643,412.4a9.84,9.84,0,0,1,10.25,9.43c.12,2.75.26,5.52.43,8.29.49,7.64,1.22,15.38,2.17,23a9.83,9.83,0,0,1-8.55,11l-.6.06A9.84,9.84,0,0,1,1636.29,455.55Z"/><path class="cls-35" d="M2266.88,715.91a9.86,9.86,0,0,0,5.53-2.15c4.15-3.33,8.32-6.82,12.38-10.36a9.84,9.84,0,1,0-12.94-14.84c-3.86,3.37-7.82,6.68-11.76,9.84a9.85,9.85,0,0,0,6.79,17.51Z"/></g><path class="cls-35" d="M2285.48,548.15a4.6,4.6,0,0,0,0-5.34l-32.43-45.66a244,244,0,0,0,17.92-77l49.21-26.66a4.6,4.6,0,0,0,2.35-4.8l-11-66.27a4.61,4.61,0,0,0-3.77-3.79l-55.19-9.34a243.88,243.88,0,0,0-41.81-67.08l16-53.68a4.61,4.61,0,0,0-1.74-5.05l-54.63-39.09a4.58,4.58,0,0,0-5.34,0l-45.66,32.43a244,244,0,0,0-77-17.92l-26.66-49.21a4.59,4.59,0,0,0-4.8-2.35l-66.27,11a4.61,4.61,0,0,0-3.79,3.77l-9.34,55.19a243.88,243.88,0,0,0-67.08,41.81l-53.68-16a4.59,4.59,0,0,0-5,1.73l-39.09,54.63a4.58,4.58,0,0,0,0,5.34l32.43,45.66a244,244,0,0,0-17.92,77l-49.21,26.65a4.6,4.6,0,0,0-2.35,4.8l11,66.27a4.61,4.61,0,0,0,3.77,3.79l55.19,9.34a243.88,243.88,0,0,0,41.81,67.08l-16,53.68a4.61,4.61,0,0,0,1.73,5.06l54.63,39.09a4.61,4.61,0,0,0,5.35,0l45.65-32.43a244,244,0,0,0,77,17.92L2036.37,698a4.6,4.6,0,0,0,4.8,2.35l66.27-11a4.61,4.61,0,0,0,3.79-3.77l9.34-55.19a243.88,243.88,0,0,0,67.08-41.81l53.68,16a4.59,4.59,0,0,0,5.05-1.74Z"/><path class="cls-3" d="M2020.46,471.12a67.47,67.47,0,1,1,9.91.1A67.59,67.59,0,0,1,2020.46,471.12ZM1992.6,364.31a51.78,51.78,0,1,0,37.74-12.08,53.26,53.26,0,0,0-7.68-.07A51.4,51.4,0,0,0,1992.6,364.31Z"/><path class="cls-3" d="M2035.17,568.65q8.47-.54,17-1.94h0c1.77-.3,3.55-.62,5.32-1a167.47,167.47,0,0,0,25.58-7.25l.34-.13,1-.36,1.86-.72a4,4,0,0,0,2.49-3.91,4.4,4.4,0,0,0-.27-1.21,4,4,0,0,0-5.11-2.21,158.28,158.28,0,0,1-214.37-121.17,162,162,0,0,1-1.85-16.17,158.22,158.22,0,0,1,132-165.73C2085.16,232.61,2166.72,291,2181,377a158.46,158.46,0,0,1-8.82,83.79,3.83,3.83,0,0,0-.27,1.69,3.94,3.94,0,0,0,7.59,1.19,166.26,166.26,0,0,0,9.27-88c-15-90.32-100.67-151.61-191-136.63a166.07,166.07,0,0,0-138.58,174,169.4,169.4,0,0,0,1.94,17,166.09,166.09,0,0,0,174,138.58Z"/><g class="cls-66"><path class="cls-35" d="M2762,670.49a6.09,6.09,0,0,0,5.54-4.74c1.14-5,2.14-10.17,3-15.27a6.08,6.08,0,1,0-12-2c-.8,4.86-1.75,9.75-2.83,14.56a6.08,6.08,0,0,0,4.59,7.27A6.36,6.36,0,0,0,2762,670.49Z"/><path class="cls-35" d="M2767.43,624.11a6.08,6.08,0,0,1-5.84-6.31,249.52,249.52,0,0,0-.32-25.51c-.11-1.78-.25-3.57-.4-5.37a6.09,6.09,0,0,1,5.55-6.57,6.3,6.3,0,0,1,6.57,5.56q.24,2.8.42,5.61a265.22,265.22,0,0,1,.33,26.75,6.07,6.07,0,0,1-5.68,5.83A4.39,4.39,0,0,1,2767.43,624.11Zm-11-67.74a252.09,252.09,0,0,0-8.17-29.78,6.08,6.08,0,1,1,11.51-3.93,261.41,261.41,0,0,1,8.56,31.22,6.09,6.09,0,0,1-4.71,7.2,6.32,6.32,0,0,1-.86.11A6.09,6.09,0,0,1,2756.4,556.37Zm-20-58.32a248.51,248.51,0,0,0-15.23-26.86,6.08,6.08,0,1,1,10.19-6.65,264.18,264.18,0,0,1,16,28.17,6.09,6.09,0,0,1-2.8,8.14,6.28,6.28,0,0,1-2.28.6A6.1,6.1,0,0,1,2736.44,498.05Zm-33.67-51.64a251.34,251.34,0,0,0-21.34-22.31,6.08,6.08,0,0,1,8.25-8.93,263.09,263.09,0,0,1,22.38,23.39,6.08,6.08,0,1,1-9.29,7.85Zm-45.26-41.85a255.78,255.78,0,0,0-26.12-16.46,6.08,6.08,0,1,1,5.84-10.66,265.62,265.62,0,0,1,27.38,17.25,6.08,6.08,0,0,1-3.17,11A6,6,0,0,1,2657.51,404.56ZM2603.46,375a248.46,248.46,0,0,0-29.32-9.58,6.08,6.08,0,1,1,3.06-11.77A258.58,258.58,0,0,1,2608,363.67a6.08,6.08,0,0,1-1.86,11.72A6.21,6.21,0,0,1,2603.46,375Zm-59.62-15.47a248.82,248.82,0,0,0-30.8-2.09,6.09,6.09,0,0,1,.08-12.17,263.5,263.5,0,0,1,32.3,2.2,6.08,6.08,0,0,1-.4,12.1A6.69,6.69,0,0,1,2543.84,359.5Zm-99.38.62a6.09,6.09,0,0,1,4.47-7.35,265.59,265.59,0,0,1,27.64-5.19c1.41-.19,2.82-.37,4.23-.53a6.08,6.08,0,0,1,1.4,12.08c-1.32.15-2.65.32-4,.51a253.68,253.68,0,0,0-26.39,4.94,5.57,5.57,0,0,1-1.06.17A6.1,6.1,0,0,1,2444.46,360.12Z"/></g><g class="cls-66"><path class="cls-35" d="M2524.26,870.23a264,264,0,0,1-31.83-.32,6.08,6.08,0,0,1,.86-12.13,252,252,0,0,0,30.36.3,6.09,6.09,0,0,1,.7,12.15Zm24.64-8.48a6.08,6.08,0,0,1,5-7,254,254,0,0,0,29.58-6.94,6.08,6.08,0,0,1,3.48,11.66,266.7,266.7,0,0,1-31,7.27c-.22,0-.43.06-.65.07A6.07,6.07,0,0,1,2548.9,861.75Zm-88.05,4a264.58,264.58,0,0,1-30.82-8,6.08,6.08,0,0,1,3.77-11.57,252.25,252.25,0,0,0,29.4,7.64,6.08,6.08,0,0,1-.79,12A5.92,5.92,0,0,1,2460.85,865.72Zm148-20.39a6.09,6.09,0,0,1,3.13-8,248.42,248.42,0,0,0,27-13.87,6.08,6.08,0,0,1,6.21,10.46,261.19,261.19,0,0,1-28.35,14.55,6.08,6.08,0,0,1-8-3.13Zm-208.39.7a264.25,264.25,0,0,1-28-15.18,6.08,6.08,0,1,1,6.44-10.32A249.89,249.89,0,0,0,2405.58,835a6.09,6.09,0,1,1-5.15,11Zm-53.94-33.62A265.65,265.65,0,0,1,2323,791a6.08,6.08,0,1,1,8.71-8.48,254.8,254.8,0,0,0,22.47,20.44,6.08,6.08,0,1,1-7.64,9.47Zm-44.34-45.56a261,261,0,0,1-17.72-26.48,6.08,6.08,0,0,1,10.5-6.14,247.22,247.22,0,0,0,16.9,25.24,6.09,6.09,0,0,1-9.68,7.38Z"/><path class="cls-35" d="M2668.44,817.11a6.12,6.12,0,0,0,3.33-1.26c4.12-3.19,8.16-6.51,12-9.87a6.08,6.08,0,0,0-8-9.17c-3.68,3.21-7.54,6.38-11.46,9.42a6.08,6.08,0,0,0,4.11,10.88Z"/></g><path class="cls-35" d="M2684.58,702.47a3.08,3.08,0,0,0,0-3.57l-21.7-30.56a163.41,163.41,0,0,0,12-51.51L2707.8,599a3.08,3.08,0,0,0,1.57-3.21L2702,551.44a3.09,3.09,0,0,0-2.53-2.54l-36.92-6.25a163.52,163.52,0,0,0-28-44.88l10.68-35.93a3.08,3.08,0,0,0-1.16-3.38l-36.56-26.16a3.08,3.08,0,0,0-3.57,0L2573.42,454a163.14,163.14,0,0,0-51.51-12l-17.84-32.93a3.06,3.06,0,0,0-3.21-1.57l-44.34,7.35a3.09,3.09,0,0,0-2.54,2.53l-6.25,36.92a163.28,163.28,0,0,0-44.88,28l-35.93-10.68a3.09,3.09,0,0,0-3.38,1.16l-26.16,36.56a3.08,3.08,0,0,0,0,3.57l21.7,30.56a163.41,163.41,0,0,0-12,51.51l-32.93,17.84a3.07,3.07,0,0,0-1.57,3.21l7.35,44.34a3.09,3.09,0,0,0,2.53,2.54l36.92,6.25a163.52,163.52,0,0,0,28,44.88L2376.69,750a3.1,3.1,0,0,0,1.16,3.39l36.56,26.15a3.06,3.06,0,0,0,3.57,0l30.56-21.7a163.41,163.41,0,0,0,51.51,12l17.84,32.93a3.08,3.08,0,0,0,3.21,1.57l44.34-7.35a3.09,3.09,0,0,0,2.54-2.53l6.25-36.92a163.52,163.52,0,0,0,44.88-28L2655,740.19a3.09,3.09,0,0,0,3.38-1.16Z"/><path class="cls-3" d="M2507.17,651.74a46,46,0,1,1,6.82.06A45.71,45.71,0,0,1,2507.17,651.74Zm-29.91-48.65a33.85,33.85,0,0,0,30.92,36.53h0a33.84,33.84,0,0,0,5.61-67.44,34.43,34.43,0,0,0-5,0A33.9,33.9,0,0,0,2477.26,603.09Z"/><path class="cls-3" d="M2517.42,719.61a115.1,115.1,0,0,0,34.09-7.45l1-.38a6.08,6.08,0,0,0-4.47-11.31,102.92,102.92,0,0,1-21,5.82h0l-1.18.18a101.36,101.36,0,0,1-49.92-4.69,102.81,102.81,0,0,1-24.47-12.69l-.19-.14-.57-.4A101.77,101.77,0,0,1,2409.24,622a103.57,103.57,0,0,1-1.2-10.47,102.4,102.4,0,0,1,203.22-23,102.47,102.47,0,0,1-5.71,54.24,6,6,0,0,0-.41,2.61,6.08,6.08,0,0,0,11.72,1.85,114.21,114.21,0,0,0,7.72-49.13,114.56,114.56,0,0,0-228.68,14.21q.38,5.84,1.34,11.71A114.72,114.72,0,0,0,2517.42,719.61Z"/></g></g></g></svg>