<?xml version="1.0" standalone="no"?>
<!DOCTYPE svg PUBLIC "-//W3C//DTD SVG 20010904//EN"
 "http://www.w3.org/TR/2001/REC-SVG-20010904/DTD/svg10.dtd">
<svg version="1.0" xmlns="http://www.w3.org/2000/svg"
 width="397.000000pt" height="397.000000pt" viewBox="0 0 397.000000 397.000000"
 preserveAspectRatio="xMidYMid meet">

<g transform="translate(0.000000,397.000000) scale(0.100000,-0.100000)"
fill="#000000" stroke="none">
<path d="M1875 3630 c-14 -5 -7 -7 23 -6 23 0 42 3 42 6 0 9 -43 9 -65 0z"/>
<path d="M2005 3629 c28 -4 79 -11 114 -14 36 -3 70 -9 75 -14 6 -4 22 -5 36
-1 l25 7 -30 6 c-61 14 -172 27 -220 26 l-50 -1 50 -9z"/>
<path d="M1673 3614 c-71 -15 -83 -22 -208 -115 -94 -70 -195 -172 -247 -247
-46 -67 -77 -153 -99 -275 -18 -102 -19 -126 -9 -283 7 -113 19 -200 33 -255
l22 -84 -23 -80 c-12 -44 -20 -90 -17 -103 3 -13 23 -42 43 -65 21 -23 45 -53
53 -67 20 -31 53 -130 46 -136 -6 -7 -121 42 -247 104 -81 40 -98 53 -114 85
-20 43 -61 72 -111 81 -18 4 -63 27 -100 51 -72 49 -88 52 -140 31 -45 -19
-45 -41 0 -57 37 -14 44 -24 22 -32 -22 -8 -116 -81 -111 -86 2 -2 19 6 37 19
17 13 44 32 59 43 29 21 48 16 48 -13 0 -13 12 -25 34 -34 29 -12 36 -21 41
-53 3 -21 10 -48 16 -61 13 -34 12 -35 -23 -27 -56 12 -148 17 -184 11 -18 -4
-54 -22 -79 -41 -25 -19 -45 -32 -45 -29 0 4 -7 1 -15 -6 -12 -10 -15 -10 -15
1 0 8 -9 3 -20 -11 -14 -18 -20 -20 -20 -9 0 25 24 69 38 69 9 0 10 5 3 19 -8
15 -6 22 12 35 19 14 20 15 2 9 -17 -6 -18 -5 -7 9 10 13 10 17 0 21 -8 4 -7
6 5 6 9 1 25 5 35 10 9 5 28 14 42 19 39 16 -6 14 -50 -2 -33 -13 -36 -12 -55
10 -11 13 -34 27 -52 30 -28 6 -37 1 -81 -43 -62 -62 -96 -143 -95 -229 1
-127 100 -231 194 -204 80 23 115 74 105 154 -7 50 -6 52 32 89 50 49 88 59
173 47 72 -10 88 -16 187 -62 34 -16 106 -44 160 -62 82 -28 222 -82 297 -116
11 -4 70 -27 132 -49 186 -69 183 -67 183 -102 0 -24 -4 -30 -16 -25 -8 3 -13
2 -10 -2 3 -5 -7 -9 -22 -9 -15 0 -70 -21 -122 -48 -148 -75 -478 -208 -560
-225 -19 -5 -48 -13 -65 -18 -105 -35 -144 -43 -241 -48 -98 -6 -113 -10 -144
-34 -19 -15 -50 -35 -68 -44 -42 -22 -49 -42 -24 -69 11 -12 25 -38 31 -58 7
-20 21 -45 31 -54 11 -10 20 -25 20 -33 0 -8 13 -38 29 -66 16 -28 32 -68 36
-88 11 -59 22 -66 105 -70 l75 -3 46 70 c80 119 166 194 315 273 121 64 289
142 308 142 4 0 35 13 69 29 34 16 97 43 140 60 42 17 110 45 150 61 39 17 82
30 93 30 12 0 28 7 35 17 25 30 82 47 169 49 96 3 105 4 142 4 29 0 119 -32
318 -115 168 -70 397 -160 430 -170 48 -15 245 -108 288 -136 24 -16 55 -35
71 -43 43 -23 109 -92 126 -133 30 -72 101 -123 171 -123 30 0 43 7 75 43 22
23 45 57 51 74 7 18 20 35 30 39 25 8 58 53 58 79 0 12 12 35 26 50 22 24 25
35 21 72 -5 48 -23 73 -75 105 -29 18 -58 23 -171 29 -197 11 -308 39 -656
164 -138 50 -429 167 -440 177 -15 14 23 73 58 90 31 15 100 51 262 138 44 24
132 73 195 109 114 65 116 66 195 67 67 1 87 5 125 27 72 43 155 33 218 -26
29 -28 32 -37 32 -88 0 -73 28 -111 95 -128 155 -39 294 132 243 301 -16 54
-62 92 -102 83 -52 -11 -178 -4 -208 11 -33 17 -43 35 -53 92 -5 31 -15 49
-35 64 -16 12 -36 38 -44 60 -18 43 -32 47 -69 18 -14 -11 -35 -20 -47 -20
-21 0 -90 -61 -90 -79 0 -4 -15 -13 -34 -19 -19 -7 -51 -24 -71 -38 -21 -14
-56 -33 -78 -41 -22 -9 -90 -45 -151 -81 -105 -61 -201 -112 -209 -112 -8 0
44 135 65 168 11 18 32 39 48 47 15 8 33 28 40 44 12 31 11 45 -10 135 -11 46
-10 53 13 100 14 28 40 92 58 141 30 83 32 99 31 202 -2 225 -38 365 -131 509
-45 70 -73 102 -125 140 -36 27 -66 55 -66 62 0 6 -4 12 -9 12 -4 0 -28 15
-53 34 -58 45 -228 117 -228 98 0 -12 64 -46 82 -43 9 1 23 -7 29 -17 7 -11
20 -17 29 -15 10 3 21 -5 29 -21 8 -14 18 -23 22 -20 4 2 13 -1 19 -8 39 -47
50 -62 50 -72 0 -6 -5 -4 -10 4 -6 9 -10 10 -10 3 0 -7 6 -16 13 -20 19 -11
39 -99 33 -137 -5 -24 -4 -27 3 -11 5 11 10 16 10 11 1 -5 7 -3 15 3 11 9 15
4 19 -26 4 -23 2 -40 -5 -44 -6 -4 -8 -18 -4 -32 4 -16 1 -27 -7 -30 -8 -4 -9
-8 -1 -14 23 -18 35 -73 33 -146 -2 -42 -7 -73 -11 -71 -4 3 -5 16 -2 30 4 14
2 24 -5 24 -6 0 -11 5 -11 11 0 6 -6 25 -14 42 -8 18 -22 57 -31 87 -23 73
-52 134 -57 118 -3 -7 -8 7 -12 32 -7 37 -10 41 -16 25 -8 -19 -9 -19 -9 2 -1
12 -4 24 -8 26 -11 7 -9 -46 2 -63 5 -9 4 -11 -3 -6 -17 10 -15 -14 3 -34 9
-10 16 -45 19 -91 4 -55 3 -65 -4 -39 -6 26 -8 11 -6 -59 1 -52 -1 -85 -5 -75
-6 15 -8 13 -8 -11 -1 -23 -4 -27 -11 -15 -8 13 -10 12 -12 -5 -1 -11 -4 7 -8
40 l-7 60 -3 -65 c-3 -62 -3 -63 -11 -25 -6 32 -7 28 -4 -22 4 -46 1 -62 -8
-60 -6 1 -15 9 -20 17 -4 9 -5 5 -2 -10 2 -14 5 -41 5 -60 1 -30 2 -32 11 -17
6 10 8 30 5 45 -5 20 -4 23 3 12 8 -12 12 -9 17 17 3 17 13 34 20 37 11 4 11
-1 -3 -27 -9 -17 -17 -48 -18 -67 -3 -41 15 -111 25 -105 10 6 35 -54 26 -62
-3 -3 -6 1 -6 9 0 26 -30 31 -31 5 -1 -16 -3 -17 -6 -5 -6 25 -41 19 -36 -7 4
-15 2 -17 -5 -6 -8 11 -10 11 -15 0 -3 -8 -4 2 -1 21 3 27 2 31 -5 15 l-10
-20 -1 20 c-1 19 -1 19 -11 2 -21 -35 -3 -53 51 -52 43 1 55 -3 85 -31 33 -30
35 -30 36 -10 0 20 1 20 9 1 5 -11 9 -28 9 -37 1 -15 -3 -15 -44 3 -27 12 -81
23 -136 27 -86 7 -92 9 -101 32 -7 20 -7 23 3 13 15 -15 33 -17 25 -4 -4 5 3
7 14 4 22 -6 28 12 8 20 -8 4 -7 6 3 6 16 1 29 20 29 44 0 6 -7 2 -15 -9 -15
-19 -15 -19 -9 1 5 19 5 19 -9 2 -13 -16 -15 -16 -21 -1 -9 22 -7 31 3 16 7
-11 9 -10 14 3 4 9 3 13 -2 10 -5 -3 -12 -1 -16 5 -12 19 -22 1 -19 -34 5 -39
-18 -56 -36 -28 -11 15 -11 15 -6 -2 5 -13 2 -17 -9 -12 -8 3 -15 0 -15 -7 0
-9 -3 -8 -9 1 -6 11 -10 10 -15 -4 -6 -16 -9 -16 -17 -4 -9 13 -10 13 -6 -1 3
-8 -1 -26 -9 -40 l-13 -24 -1 32 c0 17 -4 34 -8 37 -4 2 -6 -21 -4 -53 2 -31
-2 -68 -7 -81 -9 -20 -10 -12 -8 42 1 38 -2 69 -8 72 -6 2 -9 -14 -6 -41 2
-25 -2 -50 -9 -58 -7 -9 -13 -40 -14 -71 0 -33 -3 -48 -7 -37 -4 10 -8 15 -8
11 -2 -15 -51 44 -51 60 0 9 -5 24 -10 32 -7 12 -10 8 -10 -15 0 -33 -54 -99
-89 -108 -18 -4 -21 4 -32 86 -11 79 -16 94 -44 123 -33 33 -75 51 -94 39 -6
-3 -11 -3 -11 2 0 4 -15 7 -32 6 -48 -2 -48 -2 -48 -13 0 -5 13 -10 28 -10 16
0 36 -6 47 -13 16 -12 7 -14 -66 -14 -50 -1 -102 -7 -129 -16 -24 -9 -46 -14
-48 -12 -3 3 6 8 19 13 55 20 54 20 41 21 -23 2 -82 -31 -76 -41 3 -5 -3 -12
-14 -15 -13 -3 -23 -17 -27 -35 -4 -18 -16 -33 -31 -38 -28 -11 -33 -30 -5
-23 15 4 20 -4 29 -54 7 -32 15 -84 18 -117 10 -86 29 -103 139 -122 121 -21
150 -16 221 40 33 25 71 55 87 67 22 17 27 28 27 64 0 35 4 45 20 50 11 3 24
4 29 1 5 -3 12 5 15 19 9 35 39 49 59 27 15 -18 28 -92 16 -92 -6 0 18 -97 40
-160 5 -14 12 -34 16 -45 3 -11 -10 10 -31 48 -29 54 -41 67 -61 67 -18 0 -28
-9 -39 -35 -8 -19 -24 -50 -35 -67 l-21 -33 7 40 c4 22 12 43 17 46 6 4 8 14
5 24 -4 9 0 29 8 45 18 34 19 44 4 35 -26 -17 -59 -169 -52 -239 4 -33 -1 -56
-22 -101 -23 -48 -26 -64 -19 -94 7 -29 16 -38 44 -47 41 -14 63 -5 84 34 11
18 15 22 16 10 0 -22 38 -48 71 -48 33 0 56 26 62 70 3 25 4 19 5 -21 2 -44
-2 -58 -14 -63 -28 -11 -90 -6 -110 8 -24 18 -44 4 -45 -33 -1 -17 -3 -20 -6
-8 -2 9 -10 17 -18 17 -17 0 -8 -40 11 -47 14 -5 19 -28 29 -130 6 -60 5 -61
-22 -71 l-28 -10 28 -1 c25 -1 27 -4 27 -47 0 -45 0 -45 -32 -42 -30 3 -32 6
-35 43 -4 72 -10 83 -39 77 l-27 -5 6 69 c4 38 10 85 13 104 4 19 3 32 -1 28
-4 -4 -14 -44 -21 -89 -7 -44 -15 -84 -19 -87 -10 -11 -75 -6 -86 5 -13 13 1
82 26 133 7 14 15 48 17 75 3 28 3 41 0 30 l-4 -20 -9 20 c-6 13 -6 7 -3 -18
4 -24 1 -52 -9 -75 -8 -20 -21 -58 -27 -84 -9 -34 -18 -48 -30 -48 -32 0 -42
27 -44 114 -1 68 -5 90 -22 113 -27 36 -80 63 -126 63 -27 0 -41 6 -52 22 -18
25 -21 53 -6 43 14 -8 12 5 -4 34 l-13 23 -6 -23 c-4 -13 -7 -36 -7 -51 0 -15
-5 -30 -10 -33 -19 -12 -75 30 -86 63 -5 18 -14 29 -19 25 -4 -5 -5 0 -2 10 4
9 2 17 -2 17 -5 0 -14 15 -20 33 -19 54 -36 87 -43 87 -5 0 -8 7 -8 15 0 8 -5
14 -12 12 -6 -1 -18 12 -27 28 -9 17 -20 33 -26 37 -7 5 -6 14 1 25 15 22 50
19 87 -8 15 -11 31 -18 35 -15 12 7 40 139 50 237 6 62 15 95 30 117 35 49 37
105 8 206 -14 48 -27 109 -28 135 -1 39 -2 41 -5 12 l-4 -34 -20 32 c-18 30
-39 41 -39 21 0 -5 5 -10 10 -10 6 0 10 -5 10 -10 0 -6 11 -27 24 -48 33 -51
72 -208 56 -227 -6 -8 -9 -19 -5 -25 4 -6 -2 -23 -12 -38 -10 -15 -24 -43 -30
-62 l-12 -35 4 40 c5 37 4 39 -10 21 -17 -23 -20 -72 -4 -82 19 -11 -9 -235
-29 -234 -23 1 -40 35 -55 105 -9 44 -28 121 -41 171 -15 54 -24 113 -23 143
1 28 4 46 5 41 2 -6 7 -10 11 -10 10 0 -1 62 -18 103 -14 36 -14 37 4 37 9 0
18 -7 21 -15 4 -8 14 -15 23 -15 16 0 91 -72 91 -88 0 -5 7 -9 15 -9 23 0 18
23 -8 34 -13 6 -34 27 -47 47 -14 20 -32 36 -41 36 -9 0 -22 7 -29 15 -6 8
-17 13 -23 12 -14 -2 -10 93 4 108 12 12 12 28 -1 20 -6 -3 -10 4 -9 17 1 30
17 77 19 58 2 -22 18 19 19 49 1 14 7 32 15 40 8 9 17 34 19 57 6 53 26 91 79
150 83 91 109 115 118 109 6 -3 10 0 10 7 0 12 53 57 155 132 22 16 53 30 70
31 17 1 40 7 50 12 11 6 36 11 55 12 19 1 53 6 75 10 38 8 38 9 -20 9 -33 0
-88 -6 -122 -14z m794 -406 c-3 -7 -5 -2 -5 12 0 14 2 19 5 13 2 -7 2 -19 0
-25z m220 -10 c-3 -8 -6 -5 -6 6 -1 11 2 17 5 13 3 -3 4 -12 1 -19z m-177 -53
c0 -5 -5 -3 -10 5 -5 8 -10 20 -10 25 0 6 5 3 10 -5 5 -8 10 -19 10 -25z m250
-25 c0 -5 -5 -10 -11 -10 -5 0 -7 5 -4 10 3 6 8 10 11 10 2 0 4 -4 4 -10z
m-1603 -77 c-3 -10 -5 -4 -5 12 0 17 2 24 5 18 2 -7 2 -21 0 -30z m1306 -212
c-4 -3 -9 -14 -11 -25 -2 -12 1 -16 10 -10 7 4 5 -2 -5 -14 -11 -11 -16 -25
-13 -30 3 -5 1 -22 -4 -38 l-8 -29 -1 36 c-1 19 -6 40 -12 46 -7 7 -5 16 8 28
10 10 18 23 18 29 0 6 5 22 10 36 l9 25 4 -24 c2 -13 0 -26 -5 -30z m364 -23
c-2 -13 -4 -3 -4 22 0 25 2 35 4 23 2 -13 2 -33 0 -45z m-70 0 c-3 -7 -5 -2
-5 12 0 14 2 19 5 13 2 -7 2 -19 0 -25z m25 -3 c3 -13 1 -22 -3 -19 -9 5 -13
44 -5 44 2 0 6 -11 8 -25z m-75 -57 c-3 -8 -6 -5 -6 6 -1 11 2 17 5 13 3 -3 4
-12 1 -19z m-287 -20 c-1 -28 -2 -30 -11 -15 -6 10 -8 25 -5 33 9 24 16 16 16
-18z m147 7 c-3 -6 1 -12 9 -12 8 0 14 4 14 8 0 4 6 9 14 12 12 5 13 1 1 -26
-7 -18 -19 -32 -25 -32 -6 0 -18 -11 -25 -25 -11 -20 -14 -21 -15 -7 0 10 5
27 10 37 7 13 7 21 -2 26 -7 5 -8 3 -3 -7 5 -8 4 -11 -1 -6 -5 5 -9 19 -9 31
-1 18 4 22 18 18 10 -2 16 -10 14 -17z m-104 -52 c-3 -43 -2 -54 6 -43 9 12
11 10 11 -10 0 -14 -4 -31 -9 -39 -12 -18 -26 88 -17 124 10 40 13 29 9 -32z
m-653 -289 c0 -76 -4 -102 -22 -139 -12 -25 -28 -45 -35 -45 -7 0 -18 -10 -24
-22 -26 -52 -45 -63 -101 -61 -29 1 -80 6 -113 10 l-60 8 37 18 c20 9 48 17
62 17 14 0 26 5 26 10 0 6 14 10 30 10 23 0 33 6 40 24 5 13 18 27 28 30 32
10 69 54 76 88 3 17 14 40 24 51 16 19 16 19 -6 12 -19 -5 -25 -3 -29 14 -3
12 -10 18 -17 14 -6 -3 -2 3 9 14 l20 20 6 -26 c6 -23 7 -22 8 10 1 41 7 50
27 42 11 -4 14 -28 14 -99z m745 18 c-6 -6 -35 62 -34 80 0 7 9 -7 20 -31 11
-24 17 -46 14 -49z m-949 53 c10 -8 15 -15 10 -15 -5 0 -3 -7 4 -15 21 -25 -1
-17 -26 11 -35 37 -27 49 12 19z m101 -75 c2 -2 8 2 13 10 8 13 10 12 10 -3 0
-14 -6 -18 -27 -15 -24 3 -28 7 -29 38 -1 52 9 60 19 15 6 -22 12 -42 14 -45z
m882 25 c0 -16 -1 -17 -8 -5 -5 8 -12 26 -16 40 -7 24 -7 24 9 5 8 -11 15 -29
15 -40z m-932 23 c-3 -8 -6 -5 -6 6 -1 11 2 17 5 13 3 -3 4 -12 1 -19z m816 9
c35 7 44 -26 35 -116 -10 -93 -34 -168 -57 -181 -26 -13 -64 -1 -56 18 5 13 2
12 -14 -2 -14 -13 -28 -16 -46 -12 -20 5 -25 4 -19 -6 6 -10 4 -10 -9 0 -9 8
-21 11 -26 8 -12 -8 -24 11 -16 24 5 8 12 7 23 -2 14 -12 14 -10 3 10 -10 19
-9 22 7 22 10 0 27 -6 38 -14 17 -13 21 -12 37 1 18 17 24 49 7 38 -5 -3 -10
-1 -10 5 0 6 -7 10 -16 8 -24 -4 -28 59 -4 65 13 3 17 -2 17 -24 0 -16 3 -32
6 -36 14 -14 17 6 8 48 -6 27 -6 48 -1 55 6 6 7 13 4 16 -3 3 3 5 13 5 14 -2
17 4 15 23 -3 24 -2 24 14 5 15 -19 15 -19 10 -1 -7 20 4 69 11 50 2 -6 14 -9
26 -7z m-819 -43 c3 -8 2 -12 -4 -9 -6 3 -10 10 -10 16 0 14 7 11 14 -7z m416
-8 c0 -3 -4 -8 -10 -11 -5 -3 -10 -1 -10 4 0 6 5 11 10 11 6 0 10 -2 10 -4z
m450 -156 c-12 -52 -25 -99 -30 -104 -5 -5 -7 -29 -3 -53 4 -29 2 -43 -6 -43
-6 0 -11 9 -11 19 0 14 -7 19 -26 17 -23 -1 -25 -4 -20 -30 3 -16 6 -45 7 -65
0 -29 2 -32 9 -16 5 11 9 14 9 6 1 -10 4 -11 14 -2 28 22 48 -67 27 -114 -7
-14 -8 -8 -4 20 4 30 3 36 -5 25 -6 -8 -11 -24 -11 -34 0 -14 -3 -17 -11 -9
-7 7 -19 1 -41 -21 -18 -18 -33 -26 -35 -19 -2 6 -20 -3 -41 -23 -39 -36 -50
-38 -33 -6 17 32 14 75 -4 68 -8 -3 -15 -1 -15 5 0 5 7 12 15 15 8 4 12 10 9
16 -3 5 -11 4 -19 -2 -12 -10 -13 -6 -5 21 5 17 7 36 3 42 -4 6 -1 7 6 3 7 -5
10 -13 8 -20 -3 -6 2 -17 9 -24 12 -10 14 -10 14 2 0 8 -4 26 -9 39 -7 18 -6
30 4 43 13 18 13 18 12 -1 -1 -11 3 -19 10 -18 19 4 36 -36 29 -69 -3 -18 -2
-27 4 -23 6 3 10 21 10 40 0 18 7 41 16 50 12 11 14 25 10 50 -4 19 -11 35
-16 35 -5 0 -11 8 -13 18 -3 12 -5 11 -6 -6 0 -13 -5 -21 -10 -18 -5 4 -11 1
-13 -5 -2 -7 -22 -11 -46 -10 -67 2 -72 3 -72 20 0 13 -2 13 -9 3 -6 -11 -12
-10 -26 5 -18 17 -18 17 -13 -2 3 -11 9 -28 13 -37 5 -13 3 -18 -8 -18 -18 0
-27 52 -14 76 6 11 6 15 -1 10 -6 -3 -13 0 -15 6 -4 10 -8 9 -16 -2 -9 -13
-11 -12 -11 3 0 10 -4 15 -10 12 -6 -4 -7 2 -1 18 6 14 6 29 0 38 -5 8 -9 10
-9 6 0 -10 -60 58 -60 69 0 5 31 -23 70 -61 l70 -69 106 3 c58 1 117 6 130 11
33 13 59 60 75 133 7 34 13 65 15 70 1 4 3 19 4 35 3 27 3 27 7 -3 2 -17 -6
-73 -17 -125z m37 118 c-3 -7 -5 -2 -5 12 0 14 2 19 5 13 2 -7 2 -19 0 -25z
m194 -5 c-12 -20 -14 -14 -5 12 4 9 9 14 11 11 3 -2 0 -13 -6 -23z m-684 -5
c-3 -8 -6 -5 -6 6 -1 11 2 17 5 13 3 -3 4 -12 1 -19z m-221 -55 c6 -31 3 -39
-16 -55 -40 -32 -53 -23 -30 22 11 21 20 46 20 55 0 30 19 14 26 -22z m-656
-14 c0 -28 -4 -39 -12 -37 -18 6 -22 46 -8 64 18 21 20 18 20 -27z m1390 6 c0
-5 -5 -3 -10 5 -5 8 -10 20 -10 25 0 6 5 3 10 -5 5 -8 10 -19 10 -25z m20 15
c0 -11 -2 -20 -4 -20 -2 0 -6 9 -9 20 -3 11 -1 20 4 20 5 0 9 -9 9 -20z m761
-12 c1 -7 1 -16 0 -20 0 -5 4 -8 9 -8 6 0 10 -7 10 -15 0 -8 5 -15 11 -15 7 0
9 -10 4 -27 -6 -27 -6 -27 9 -8 15 20 15 20 16 -1 1 -88 93 -164 197 -164 54
0 75 -18 75 -64 0 -43 -14 -68 -46 -86 -14 -7 -26 -18 -26 -23 0 -6 -11 0 -25
13 -14 13 -25 20 -25 16 0 -5 -7 -3 -15 4 -8 7 -15 17 -15 22 0 6 7 5 15 -2
26 -21 16 -5 -12 21 -14 13 -23 18 -19 12 11 -20 -6 -14 -39 12 -19 16 -24 25
-15 25 8 0 0 10 -19 22 -28 18 -47 22 -98 20 -47 -2 -63 0 -58 9 5 8 0 9 -16
5 -14 -3 -11 0 9 9 38 18 43 29 6 15 -32 -13 -47 -13 -39 0 8 12 -52 -13 -147
-62 -45 -23 -78 -47 -78 -55 0 -9 -6 -13 -15 -9 -8 3 -79 -26 -157 -65 -78
-39 -155 -72 -172 -73 -33 -3 -101 -34 -93 -43 3 -2 17 3 31 13 15 9 29 14 33
11 3 -4 -2 -9 -11 -13 -9 -3 -13 -11 -9 -17 3 -6 1 -7 -5 -3 -6 4 -25 0 -41
-9 -38 -19 -50 -19 -25 1 18 14 18 15 -3 4 -13 -6 -22 -15 -20 -21 4 -18 -36
-39 -53 -29 -13 9 -13 11 0 20 13 9 13 10 0 10 -13 0 -13 2 -1 9 8 5 16 16 17
25 2 13 -2 14 -17 5 -11 -5 -26 -6 -34 -2 -11 7 -1 16 41 36 31 16 78 45 103
66 43 36 218 131 269 146 12 3 22 11 22 16 0 5 6 9 13 9 8 0 22 9 32 20 10 11
20 18 23 16 6 -6 182 84 201 102 11 10 30 13 68 9 39 -4 53 -2 53 7 0 20 -12
27 -27 14 -12 -10 -14 -6 -11 23 2 28 8 36 36 45 17 5 37 15 44 22 16 16 38
15 39 0z m-1095 -7 c-4 -5 0 -11 6 -14 7 -2 10 -8 6 -12 -4 -4 -11 -4 -17 0
-14 8 -14 35 0 35 5 0 8 -4 5 -9z m64 -5 c0 -6 -4 -17 -9 -24 -6 -10 -10 -7
-13 10 -3 16 0 25 9 25 7 0 13 -5 13 -11z m-183 -15 c7 7 19 0 38 -23 16 -18
33 -31 39 -30 6 2 8 0 4 -4 -4 -4 -3 -13 3 -21 9 -10 8 -13 0 -13 -7 0 -9 -4
-6 -10 11 -18 -1 -11 -21 12 -15 19 -16 20 -1 9 9 -7 17 -10 17 -6 0 11 -38
56 -47 56 -4 1 -14 5 -20 11 -19 16 -15 0 8 -33 11 -16 15 -29 9 -29 -6 0 -14
8 -17 18 -4 9 -16 25 -28 34 -11 10 -16 17 -11 18 5 0 2 8 -5 18 -13 16 -13
16 7 0 14 -12 23 -15 31 -7z m421 -12 c-3 -8 -7 -3 -11 10 -4 17 -3 21 5 13 5
-5 8 -16 6 -23z m-1041 -1 c-3 -8 -6 -5 -6 6 -1 11 2 17 5 13 3 -3 4 -12 1
-19z m-829 -41 c34 -23 62 -45 62 -49 0 -5 15 -8 33 -8 41 0 81 -20 85 -44 2
-10 18 -31 35 -47 67 -60 96 -81 83 -60 -5 7 32 -8 81 -32 48 -24 105 -50 126
-56 20 -7 37 -17 37 -22 0 -5 10 -9 23 -9 12 0 36 -9 52 -20 17 -11 44 -20 61
-20 17 0 47 -6 65 -13 19 -8 55 -22 82 -31 26 -10 45 -21 42 -26 -3 -4 2 -11
11 -14 10 -4 13 -2 8 6 -4 7 -3 8 4 4 12 -7 17 -36 6 -36 -3 0 -14 5 -25 10
-11 6 -19 7 -19 1 0 -5 11 -12 24 -15 18 -4 26 -17 35 -52 8 -33 9 -50 2 -57
-8 -8 -13 -1 -17 20 -4 21 -11 30 -20 26 -8 -3 -11 -10 -8 -15 4 -7 -2 -7 -17
-2 -13 5 -37 8 -52 8 -17 -1 -24 2 -17 6 8 5 -1 12 -24 20 -19 6 -40 9 -45 6
-5 -4 -33 5 -63 19 -29 14 -44 22 -33 19 11 -4 36 -8 55 -9 19 -1 54 -10 78
-20 24 -9 45 -15 48 -13 2 3 -17 13 -43 23 -27 10 -61 23 -78 31 -125 54 -279
114 -269 104 5 -4 61 -29 124 -55 114 -46 152 -64 138 -65 -4 0 -87 32 -184
70 -97 39 -184 68 -193 65 -9 -2 -23 0 -31 6 -12 8 -9 9 10 5 22 -5 22 -5 5 4
-11 5 -42 20 -70 32 l-50 22 40 6 40 6 -47 8 c-25 4 -60 5 -78 1 -50 -11 -110
22 -84 48 3 3 14 -3 25 -14 10 -10 24 -19 30 -19 6 0 -4 15 -23 33 -19 17 -43
47 -54 64 -10 18 -33 40 -51 48 -26 13 -33 22 -33 44 0 32 -13 46 -53 56 -40
11 -42 23 -5 39 42 18 59 13 136 -37z m806 37 c3 -8 2 -12 -4 -9 -6 3 -10 10
-10 16 0 14 7 11 14 -7z m1121 -94 c4 -31 4 -32 -3 -5 -6 25 -9 27 -15 12 -4
-10 -8 -35 -8 -55 -1 -27 -3 -30 -6 -12 -2 14 -7 32 -11 40 -9 21 -9 89 1 83
4 -2 7 4 7 15 0 10 3 22 8 26 7 7 17 -31 27 -104z m-390 89 c11 -17 -1 -21
-15 -4 -8 9 -8 15 -2 15 6 0 14 -5 17 -11z m-731 -38 c16 -17 16 -19 -2 -23
-13 -4 -18 1 -20 18 -2 29 0 29 22 5z m586 -36 c0 -5 -5 -3 -10 5 -5 8 -10 20
-10 25 0 6 5 3 10 -5 5 -8 10 -19 10 -25z m450 11 c0 -8 3 -16 8 -18 10 -4 3
-118 -8 -118 -9 0 -20 60 -20 113 0 20 5 37 10 37 6 0 10 -6 10 -14z m910 4
c0 -5 -2 -10 -4 -10 -3 0 -8 5 -11 10 -3 6 -1 10 4 10 6 0 11 -4 11 -10z
m-1327 -35 c-3 -9 -8 -14 -10 -11 -3 3 -2 9 2 15 9 16 15 13 8 -4z m444 -47
c-3 -8 -6 -5 -6 6 -1 11 2 17 5 13 3 -3 4 -12 1 -19z m-610 -35 c-3 -10 -5 -4
-5 12 0 17 2 24 5 18 2 -7 2 -21 0 -30z m-1645 1 c9 -20 9 -38 -1 -82 -20 -91
-25 -150 -12 -166 9 -11 7 -12 -13 -9 -13 3 -27 0 -30 -6 -4 -6 1 -8 13 -6 14
2 18 -1 15 -10 -7 -18 27 -36 54 -28 17 4 20 1 15 -16 -5 -19 -6 -19 -32 -4
-14 9 -35 24 -46 32 -19 16 -19 16 -1 -14 l17 -30 -26 29 c-15 16 -25 37 -22
46 2 10 -2 17 -9 17 -20 0 -18 -7 16 -60 16 -26 26 -47 22 -47 -4 0 2 -7 12
-15 23 -18 14 -20 -16 -4 -14 8 -17 13 -9 18 9 6 8 11 -2 20 -12 9 -16 8 -21
-4 -3 -9 3 -23 14 -32 27 -23 25 -37 -2 -28 -13 3 -29 7 -36 7 -7 1 -30 20
-51 43 -29 32 -39 52 -45 91 -16 123 72 284 156 284 21 0 31 -7 40 -26z m1838
6 c5 8 11 -4 15 -29 4 -23 4 -45 1 -48 -3 -4 -6 7 -6 23 0 22 -3 26 -10 14 -8
-13 -10 -13 -10 2 0 9 -2 22 -3 30 -2 7 -2 9 1 4 2 -4 8 -3 12 4z m370 -10 c0
-5 -5 -10 -11 -10 -5 0 -7 5 -4 10 3 6 8 10 11 10 2 0 4 -4 4 -10z m720 -20
c-13 -9 -13 -10 0 -10 12 -1 12 -2 -2 -10 -9 -6 -24 -7 -33 -3 -15 5 -14 8 6
19 28 15 51 18 29 4z m546 -11 c11 -9 22 -59 30 -140 3 -30 -1 -38 -20 -49
-13 -7 -29 -10 -34 -6 -10 6 -47 -42 -39 -51 3 -3 12 8 21 24 8 15 15 22 16
16 0 -7 -13 -27 -29 -45 -24 -27 -36 -32 -80 -35 -32 -2 -50 1 -46 7 3 5 -7
12 -22 16 -15 4 -34 11 -40 17 -9 6 -13 6 -13 -2 0 -7 -5 -9 -10 -6 -18 11 0
25 32 25 52 0 108 22 134 53 20 24 24 39 24 92 0 37 -5 67 -12 71 -7 5 -5 11
8 21 19 14 58 10 80 -8z m-3072 -14 c3 -8 1 -15 -4 -15 -6 0 -10 7 -10 15 0 8
2 15 4 15 2 0 6 -7 10 -15z m2721 -17 c6 -6 3 -7 -9 -2 -13 5 -17 4 -12 -4 4
-8 2 -10 -8 -6 -8 3 -17 12 -20 20 -5 12 -1 14 17 9 12 -4 27 -12 32 -17z
m-848 -10 c-3 -8 -6 -5 -6 6 -1 11 2 17 5 13 3 -3 4 -12 1 -19z m766 15 c-7
-2 -19 -2 -25 0 -7 3 -2 5 12 5 14 0 19 -2 13 -5z m-1266 -45 c-3 -8 -6 -5 -6
6 -1 11 2 17 5 13 3 -3 4 -12 1 -19z m1013 17 c0 -2 -10 -9 -22 -15 -22 -11
-22 -10 -4 4 21 17 26 19 26 11z m-2620 -29 c0 -2 -7 -7 -16 -10 -8 -3 -12 -2
-9 4 6 10 25 14 25 6z m1784 -14 c-6 -4 -14 -14 -17 -22 -4 -10 -6 -8 -6 8 -1
15 5 22 17 22 10 0 13 -3 6 -8z m-1470 -10 c2 -4 -11 -6 -30 -4 -19 2 -34 6
-34 8 0 8 59 4 64 -4z m2216 3 c0 -2 -24 -17 -52 -31 -58 -29 -58 -23 0 12 38
23 52 28 52 19z m-1040 -47 c0 -26 -4 -38 -8 -30 -8 12 -4 72 4 72 2 0 4 -19
4 -42z m1540 27 c5 3 10 1 10 -4 0 -6 -4 -11 -9 -11 -18 0 -41 12 -41 22 0 6
6 5 15 -2 8 -6 19 -9 25 -5z m-3150 -34 c-5 -11 -14 -22 -19 -26 -15 -8 -25
15 -12 28 8 8 11 7 11 -3 1 -11 3 -11 11 3 14 23 22 22 9 -2z m570 9 c8 -5 11
-10 5 -10 -5 0 -17 5 -25 10 -8 5 -10 10 -5 10 6 0 17 -5 25 -10z m2626 -27
l25 -28 -4 27 c-2 15 0 25 4 22 5 -3 9 -14 9 -24 0 -10 8 -21 18 -23 12 -3 11
-5 -6 -6 -23 -1 -82 36 -82 51 0 14 10 9 36 -19z m-1031 7 c-3 -5 -12 -10 -18
-10 -7 0 -6 4 3 10 19 12 23 12 15 0z m1005 -31 c0 -6 -4 -7 -10 -4 -5 3 -10
11 -10 16 0 6 5 7 10 4 6 -3 10 -11 10 -16z m-2480 1 c8 -5 11 -10 5 -10 -5 0
-17 5 -25 10 -8 5 -10 10 -5 10 6 0 17 -5 25 -10z m1240 -47 c-11 -17 -11 -17
-6 0 3 10 7 26 7 35 1 15 2 15 6 0 2 -10 -1 -25 -7 -35z m-1190 27 c8 -5 11
-10 5 -10 -5 0 -17 5 -25 10 -8 5 -10 10 -5 10 6 0 17 -5 25 -10z m1640 -20
c-30 -16 -59 -29 -65 -29 -5 0 15 13 45 29 30 16 60 29 65 29 6 0 -15 -13 -45
-29z m1037 10 c-1 -11 -7 -22 -14 -24 -9 -4 -10 0 -1 19 14 30 17 31 15 5z
m-2497 -62 c10 -6 7 -7 -10 -2 -14 3 -32 11 -40 16 -10 6 -7 7 10 2 14 -3 32
-11 40 -16z m1013 -3 c-3 -9 -8 -14 -10 -11 -3 3 -2 9 2 15 9 16 15 13 8 -4z
m1268 5 c21 -12 26 -30 7 -30 -6 0 -8 3 -4 7 3 4 -4 13 -16 20 -13 7 -19 12
-15 13 5 0 17 -5 28 -10z m165 -10 c0 -13 -7 -20 -20 -20 -18 0 -19 1 -1 20
10 11 19 20 19 20 1 0 2 -9 2 -20z m-1567 -93 c18 -53 19 -116 3 -122 -21 -8
-31 2 -38 40 -3 19 -10 35 -14 35 -5 0 -11 24 -15 53 -3 28 -9 60 -11 70 -8
25 11 21 25 -5 11 -22 11 -21 6 7 -5 28 -4 28 14 -8 11 -21 25 -53 30 -70z
m1501 93 c-13 -8 -12 -10 4 -10 30 0 15 -7 -29 -13 -28 -5 -34 -4 -20 3 14 6
16 9 5 10 -8 1 -4 6 10 10 35 11 48 11 30 0z m-1327 -65 c4 -34 3 -42 -3 -25
-8 25 -13 87 -6 79 2 -2 6 -26 9 -54z m92 45 c-3 -5 -12 -10 -18 -10 -7 0 -6
4 3 10 19 12 23 12 15 0z m-405 -26 c0 -8 3 -14 8 -14 4 0 7 -31 6 -69 -1 -56
-5 -72 -23 -90 -13 -13 -24 -21 -25 -19 -17 19 -26 56 -24 100 l1 53 7 -50 c7
-50 7 -49 8 21 2 66 15 100 34 88 4 -3 8 -12 8 -20z m65 -74 c7 -73 0 -114
-18 -107 -8 2 -12 38 -13 107 -1 85 1 100 12 86 6 -9 15 -48 19 -86z m113 -10
c0 -22 -1 -22 -8 5 -4 17 -8 41 -8 55 0 22 1 22 8 -5 4 -16 8 -41 8 -55z m106
54 c3 -8 2 -12 -4 -9 -6 3 -10 10 -10 16 0 14 7 11 14 -7z m-75 -46 c1 -5 -3
-8 -9 -8 -5 0 -10 12 -9 28 0 24 1 25 9 7 5 -11 9 -23 9 -27z m-669 22 c18
-12 2 -12 -25 0 -13 6 -15 9 -5 9 8 0 22 -4 30 -9z m730 -20 c0 -5 -4 -10 -10
-10 -5 0 -10 5 -10 10 0 6 5 10 10 10 6 0 10 -4 10 -10z m-685 -30 c8 -16 26
-32 39 -36 15 -3 27 -16 32 -32 5 -21 8 -23 11 -9 5 18 12 21 37 11 11 -4 16
-19 16 -51 0 -42 -1 -44 -27 -41 -19 2 -29 10 -33 28 -6 25 -6 25 -12 -5 -8
-37 -1 -48 23 -42 11 3 17 2 14 -3 -3 -4 -15 -10 -28 -14 -35 -8 -119 -47
-114 -52 2 -2 30 7 62 21 31 14 59 24 62 22 2 -2 -46 -26 -107 -52 -63 -27
-106 -51 -100 -55 15 -9 -14 -22 -33 -14 -30 11 -520 -206 -624 -277 -53 -37
-64 -37 -22 -1 18 15 82 53 143 84 137 71 132 76 -7 8 -102 -50 -202 -124
-192 -141 4 -5 -1 -6 -9 -3 -9 3 -13 10 -10 15 11 18 -3 8 -32 -23 -16 -17
-22 -27 -14 -23 9 5 12 5 7 -1 -5 -5 -13 -10 -18 -10 -22 -3 -23 -5 -12 -12 9
-6 -1 -21 -35 -53 -45 -42 -45 -42 -9 -4 49 54 48 70 -2 21 l-38 -37 -1 71
c-1 61 -4 74 -21 87 -20 13 -30 53 -13 53 4 0 18 3 32 5 l25 6 -24 -11 c-38
-17 -13 -32 32 -19 20 5 37 14 37 18 0 4 19 14 43 21 23 7 36 15 28 18 -7 2
17 15 55 28 84 29 215 86 210 91 -2 2 -52 -16 -112 -40 -60 -25 -126 -50 -147
-57 -20 -6 -35 -15 -33 -18 2 -4 -17 -8 -43 -9 -25 -2 -61 -5 -80 -9 -27 -4
-33 -2 -28 9 4 10 -2 17 -16 21 -19 5 -20 8 -7 16 11 8 9 9 -11 5 -16 -4 -30
-1 -38 9 -15 18 -2 22 94 30 l70 5 -53 -11 c-75 -14 -58 -22 19 -8 109 18 122
22 111 29 -7 4 19 15 56 25 65 17 246 80 385 133 37 15 63 30 57 33 -7 4 6 14
30 24 23 9 46 13 52 10 6 -4 8 -2 5 3 -4 6 0 14 9 17 8 3 12 2 9 -4 -4 -6 5
-5 19 1 14 7 23 16 19 22 -3 6 -1 7 5 4 13 -9 44 2 37 13 -2 4 7 12 21 19 14
6 23 7 19 1 -3 -6 1 -7 9 -4 9 3 14 9 11 13 -5 9 65 44 73 36 3 -3 -1 -5 -8
-5 -7 0 -11 -3 -8 -6 4 -3 19 1 35 9 23 12 30 13 40 2 10 -11 10 -15 0 -18 -7
-3 -6 -6 4 -6 9 -1 22 -8 29 -16 7 -8 20 -15 29 -15 12 0 10 5 -8 19 -19 15
-22 24 -17 52 7 34 7 34 -8 9 l-14 -25 -12 27 c-11 23 -7 98 5 98 3 0 11 -13
20 -30z m707 8 c-7 -7 -12 -8 -12 -2 0 6 3 14 7 17 3 4 9 5 12 2 2 -3 -1 -11
-7 -17z m-61 -25 c-12 -20 -14 -14 -5 12 4 9 9 14 11 11 3 -2 0 -13 -6 -23z
m31 -15 c-8 -8 -9 -4 -5 13 4 13 8 18 11 10 2 -7 -1 -18 -6 -23z m85 0 c-3 -8
-6 -5 -6 6 -1 11 2 17 5 13 3 -3 4 -12 1 -19z m-17 -4 c0 -8 -6 -11 -15 -8 -8
4 -15 9 -15 13 0 4 7 8 15 8 8 0 15 -6 15 -13z m-80 -45 c0 -11 -8 -28 -17
-37 -16 -16 -16 -16 -10 1 5 12 1 17 -13 17 -10 0 -21 -8 -23 -17 -3 -13 -5
-11 -7 7 -2 24 -3 24 -10 -5 l-8 -30 -1 31 c-1 25 4 33 21 37 12 4 28 1 35 -5
10 -8 13 -5 13 11 0 12 5 19 10 16 6 -3 10 -15 10 -26z m27 9 c-3 -8 -6 -5 -6
6 -1 11 2 17 5 13 3 -3 4 -12 1 -19z m-500 -10 c15 -19 4 -88 -13 -88 -20 0
-27 24 -20 65 7 37 17 43 33 23z m357 -30 c7 -20 5 -30 -12 -49 l-22 -23 0 53
c0 57 17 67 34 19z m-287 -25 c2 -30 -2 -43 -13 -47 -26 -10 -34 3 -34 50 0
41 2 45 22 42 18 -2 23 -10 25 -45z m238 18 c8 -37 -9 -71 -35 -71 -17 0 -20
7 -20 50 0 46 2 50 24 50 19 0 26 -7 31 -29z m-74 7 c2 -23 -3 -73 -7 -78 -3
-2 -9 2 -14 10 -7 10 -10 11 -10 3 0 -7 -7 -13 -15 -13 -11 0 -15 12 -15 45 0
43 1 45 30 45 17 0 30 -6 31 -12z m203 -23 c3 -8 1 -15 -4 -15 -6 0 -10 7 -10
15 0 8 2 15 4 15 2 0 6 -7 10 -15z m161 -5 c3 -5 11 -10 16 -10 6 0 7 5 4 10
-3 6 -2 10 4 10 5 0 13 -5 16 -10 4 -6 10 -8 15 -5 10 6 112 -32 215 -81 33
-15 63 -27 68 -26 4 1 7 -2 7 -8 0 -5 6 -7 13 -5 6 3 35 -4 62 -14 28 -11 43
-20 35 -21 -13 0 -13 -1 0 -10 8 -5 23 -7 33 -4 24 7 59 -5 51 -18 -5 -7 0 -9
14 -6 12 4 25 2 28 -3 3 -5 11 -9 17 -8 28 3 46 -2 81 -26 20 -14 44 -24 54
-23 9 2 58 -7 108 -20 97 -23 242 -42 337 -42 47 0 57 -3 58 -17 0 -11 3 -13
6 -5 7 17 21 15 55 -9 40 -29 52 -63 36 -106 -12 -33 -13 -34 -19 -12 -7 24
-7 24 -8 2 -1 -13 -5 -23 -9 -23 -4 0 -8 -15 -8 -33 0 -46 -47 -95 -71 -75
-15 12 -15 11 -4 -9 6 -13 9 -23 7 -23 -3 0 -13 15 -23 33 -13 24 -18 28 -21
15 -2 -9 2 -27 8 -39 8 -14 9 -24 2 -28 -6 -3 -14 -19 -17 -34 -6 -21 -13 -27
-34 -27 -25 1 -25 1 -7 15 18 13 17 14 -8 21 -14 3 -26 9 -26 13 0 4 -11 13
-25 19 -41 19 -27 71 23 86 13 5 21 10 18 13 -5 6 17 55 38 84 6 8 -4 -1 -22
-20 -19 -20 -41 -35 -49 -33 -10 2 -12 -1 -7 -10 4 -8 3 -10 -2 -5 -5 5 -9 12
-9 17 0 5 -17 20 -38 34 -40 28 -64 36 -31 11 27 -20 4 -19 -26 2 -24 16 -24
16 -11 0 18 -23 12 -22 -43 9 -26 15 -49 24 -52 22 -2 -3 20 -18 48 -34 67
-37 72 -39 64 -25 -4 6 -3 11 3 11 5 0 13 -5 16 -10 4 -6 15 -8 25 -5 10 3 21
1 25 -4 4 -7 -1 -8 -12 -5 -13 4 -11 0 7 -16 24 -21 24 -21 2 -10 -13 6 -26 9
-29 6 -3 -3 2 -8 11 -12 9 -3 13 -10 10 -15 -6 -11 -24 -12 -23 -1 1 4 0 10
-1 15 -1 4 -3 12 -4 19 0 6 -7 13 -15 16 -9 3 -11 0 -6 -8 4 -7 -5 -5 -24 5
-17 9 -37 13 -43 9 -7 -5 -8 -3 -3 6 6 10 4 12 -9 7 -11 -5 -15 -3 -10 4 4 7
1 10 -7 7 -8 -3 -13 -11 -12 -17 4 -16 -1 -14 -57 20 -27 17 -55 27 -61 23 -7
-4 -9 -3 -5 4 4 7 -45 37 -131 80 -176 87 -244 114 -269 106 -13 -4 -15 -3 -6
4 9 6 -30 26 -135 66 -147 57 -226 92 -188 81 19 -5 19 -4 3 8 -10 8 -14 17
-10 21 4 5 0 7 -8 6 -8 -1 -22 -2 -30 -1 -12 1 -12 4 3 12 20 12 23 39 5 40
-9 0 -9 2 1 6 11 5 11 7 0 14 -9 6 -10 9 -2 9 6 0 15 -4 18 -10z m-130 -50 c3
-6 -1 -7 -9 -4 -18 7 -21 14 -7 14 6 0 13 -4 16 -10z m45 -10 c-8 -5 -19 -10
-25 -10 -5 0 -3 5 5 10 8 5 20 10 25 10 6 0 3 -5 -5 -10z m-580 -10 c-8 -5
-19 -10 -25 -10 -5 0 -3 5 5 10 8 5 20 10 25 10 6 0 3 -5 -5 -10z m-100 -45
c-14 -8 -29 -14 -35 -14 -5 0 1 6 15 14 14 8 30 14 35 14 6 0 -1 -6 -15 -14z
m-460 -5 c-8 -5 -19 -10 -25 -10 -5 0 -3 5 5 10 8 5 20 10 25 10 6 0 3 -5 -5
-10z m-50 -20 c-8 -5 -19 -10 -25 -10 -5 0 -3 5 5 10 8 5 20 10 25 10 6 0 3
-5 -5 -10z m430 -10 c-8 -5 -19 -10 -25 -10 -5 0 -3 5 5 10 8 5 20 10 25 10 6
0 3 -5 -5 -10z m-185 -78 c-15 -13 -116 -54 -121 -49 -3 3 23 16 58 30 70 29
76 31 63 19z m1350 -20 c-3 -3 -11 0 -18 7 -9 10 -8 11 6 5 10 -3 15 -9 12
-12z m-1998 -28 c-3 -3 -12 -4 -19 -1 -8 3 -5 6 6 6 11 1 17 -2 13 -5z m-194
-31 c-13 -2 -33 -2 -45 0 -13 2 -3 4 22 4 25 0 35 -2 23 -4z m647 -3 c-8 -5
-19 -10 -25 -10 -5 0 -3 5 5 10 8 5 20 10 25 10 6 0 3 -5 -5 -10z m-734 -29
c6 -16 24 -35 40 -42 21 -11 30 -22 32 -46 3 -28 0 -32 -27 -38 -17 -4 -31
-10 -31 -14 0 -6 -79 -31 -100 -31 -5 0 -15 19 -22 43 -7 23 -19 48 -28 55
-13 11 -13 13 1 21 8 6 37 26 65 45 27 19 51 35 54 35 3 1 11 -12 16 -28z
m613 -25 c-10 -9 -89 -46 -89 -41 0 6 72 44 84 45 5 0 7 -2 5 -4z m-120 -60
c-2 -2 -15 -9 -29 -15 -24 -11 -24 -11 -6 3 16 13 49 24 35 12z m-59 -31 c0
-2 -10 -9 -22 -15 -22 -11 -22 -10 -4 4 21 17 26 19 26 11z m-321 -63 c8 -19
9 -41 4 -62 -7 -27 -16 -36 -48 -46 -28 -8 -33 -12 -17 -13 27 -1 25 -23 -3
-33 -19 -6 -19 -6 2 -7 12 -1 26 6 31 16 7 11 16 14 28 9 16 -6 14 -10 -15
-22 -56 -24 -84 -19 -100 19 -8 17 -21 38 -28 45 -19 19 -16 59 5 71 13 8 10
9 -15 5 -20 -4 -33 -2 -33 4 0 12 55 26 69 18 5 -4 16 -1 23 6 46 43 77 39 97
-10z m171 -7 c0 -8 -7 -15 -16 -15 -14 0 -14 3 -4 15 7 8 14 15 16 15 2 0 4
-7 4 -15z m2705 -64 c-5 -4 -95 48 -95 54 0 3 22 -7 49 -22 27 -16 48 -30 46
-32z m-2715 35 c0 -2 -8 -10 -17 -17 -16 -13 -17 -12 -4 4 13 16 21 21 21 13z
m2649 -97 c-16 -10 -23 -4 -14 10 3 6 11 8 17 5 6 -4 5 -9 -3 -15z m59 2 c11
-7 10 -9 -3 -14 -11 -5 -14 -3 -9 5 5 8 2 9 -10 5 -10 -4 -15 -3 -11 3 7 12
16 12 33 1z m-2878 -45 c0 -3 -4 -8 -10 -11 -5 -3 -10 -1 -10 4 0 6 5 11 10
11 6 0 10 -2 10 -4z m2927 -24 c2 -16 -1 -22 -9 -19 -7 2 -12 11 -12 20 1 9
-4 13 -11 11 -7 -3 -15 -1 -18 3 -3 5 6 9 20 8 19 0 27 -6 30 -23z"/>
<path d="M2432 2335 c0 -16 2 -22 5 -12 2 9 2 23 0 30 -3 6 -5 -1 -5 -18z"/>
<path d="M2452 2330 c0 -19 2 -27 5 -17 2 9 2 25 0 35 -3 9 -5 1 -5 -18z"/>
<path d="M2412 2330 c0 -14 2 -19 5 -12 2 6 2 18 0 25 -3 6 -5 1 -5 -13z"/>
<path d="M3185 2081 c-33 -16 -57 -30 -54 -30 9 -1 119 50 119 55 0 6 -1 6
-65 -25z"/>
<path d="M925 1923 c-14 -4 5 -15 64 -40 46 -19 85 -32 88 -30 2 3 -28 17 -67
32 -50 19 -68 30 -59 36 15 9 6 10 -26 2z"/>
<path d="M1520 1780 c8 -5 20 -10 25 -10 6 0 3 5 -5 10 -8 5 -19 10 -25 10 -5
0 -3 -5 5 -10z"/>
<path d="M1380 1700 c8 -5 20 -10 25 -10 6 0 3 5 -5 10 -8 5 -19 10 -25 10 -5
0 -3 -5 5 -10z"/>
<path d="M1520 1670 c8 -5 20 -10 25 -10 6 0 3 5 -5 10 -8 5 -19 10 -25 10 -5
0 -3 -5 5 -10z"/>
<path d="M3653 1770 c-13 -5 -23 -12 -23 -15 0 -9 16 -5 36 10 22 16 19 18
-13 5z"/>
<path d="M3690 1765 c-7 -8 -8 -15 -2 -15 5 0 15 7 22 15 7 8 8 15 2 15 -5 0
-15 -7 -22 -15z"/>
<path d="M1505 1316 c-16 -8 -52 -23 -79 -35 -27 -12 -46 -24 -44 -27 3 -3 43
13 89 35 46 21 80 39 74 40 -5 0 -23 -6 -40 -13z"/>
<path d="M1295 1229 c-27 -11 -54 -25 -60 -30 -10 -10 86 24 115 41 26 16 -3
10 -55 -11z"/>
<path d="M1155 1170 c-16 -7 -17 -9 -3 -9 9 -1 20 4 23 9 7 11 7 11 -20 0z"/>
<path d="M1065 1130 c-3 -6 1 -7 9 -4 18 7 21 14 7 14 -6 0 -13 -4 -16 -10z"/>
<path d="M615 870 c-21 -22 -34 -40 -29 -40 10 0 34 24 63 63 23 29 7 19 -34
-23z"/>
<path d="M3077 1109 c7 -7 15 -10 18 -7 3 3 -2 9 -12 12 -14 6 -15 5 -6 -5z"/>
<path d="M3117 1089 c7 -7 15 -10 18 -7 3 3 -2 9 -12 12 -14 6 -15 5 -6 -5z"/>
<path d="M3148 1020 c92 -53 134 -67 116 -39 -3 5 -9 7 -14 4 -5 -3 -49 17
-98 45 -48 27 -92 50 -97 50 -6 0 37 -27 93 -60z"/>
<path d="M3157 1069 c7 -7 15 -10 18 -7 3 3 -2 9 -12 12 -14 6 -15 5 -6 -5z"/>
<path d="M3550 1031 c0 -5 7 -11 15 -15 8 -3 15 -1 15 3 0 5 -7 11 -15 15 -8
3 -15 1 -15 -3z"/>
<path d="M3640 990 c0 -5 5 -10 11 -10 5 0 7 5 4 10 -3 6 -8 10 -11 10 -2 0
-4 -4 -4 -10z"/>
<path d="M3535 890 c-3 -5 -2 -10 4 -10 5 0 13 5 16 10 3 6 2 10 -4 10 -5 0
-13 -4 -16 -10z"/>
<path d="M410 1070 c0 -5 -6 -7 -13 -4 -7 2 -24 -8 -37 -22 -14 -15 -20 -25
-15 -23 72 34 104 59 75 59 -5 0 -10 -4 -10 -10z"/>
<path d="M520 860 c-9 -6 -10 -10 -3 -10 6 0 15 5 18 10 8 12 4 12 -15 0z"/>
<path d="M498 833 c7 -3 16 -2 19 1 4 3 -2 6 -13 5 -11 0 -14 -3 -6 -6z"/>
<path d="M2347 3513 c-3 -5 4 -24 15 -43 10 -19 16 -26 12 -15 -4 11 -6 28 -6
37 1 19 -14 33 -21 21z"/>
<path d="M2336 3430 c3 -14 10 -32 15 -40 7 -12 8 -12 9 3 0 10 4 15 10 12 6
-4 7 1 3 11 -5 13 -8 14 -11 4 -3 -9 -9 -5 -19 11 l-14 24 7 -25z"/>
<path d="M2430 3445 c0 -5 5 -17 10 -25 5 -8 10 -10 10 -5 0 6 -5 17 -10 25
-5 8 -10 11 -10 5z"/>
<path d="M2270 3421 c0 -6 4 -13 10 -16 6 -3 7 1 4 9 -7 18 -14 21 -14 7z"/>
<path d="M1377 3393 c-4 -3 -7 -11 -7 -17 0 -6 5 -5 12 2 6 6 9 14 7 17 -3 3
-9 2 -12 -2z"/>
<path d="M2364 3316 c1 -30 3 -57 6 -59 3 -3 5 19 5 48 -1 30 -3 57 -6 59 -3
3 -5 -19 -5 -48z"/>
<path d="M1475 3340 c3 -5 8 -10 11 -10 2 0 4 5 4 10 0 6 -5 10 -11 10 -5 0
-7 -4 -4 -10z"/>
<path d="M2402 3290 c0 -14 2 -19 5 -12 2 6 2 18 0 25 -3 6 -5 1 -5 -13z"/>
<path d="M1348 3273 c7 -3 16 -2 19 1 4 3 -2 6 -13 5 -11 0 -14 -3 -6 -6z"/>
<path d="M1385 3270 c-3 -5 -1 -10 4 -10 6 0 11 5 11 10 0 6 -2 10 -4 10 -3 0
-8 -4 -11 -10z"/>
<path d="M2347 3230 c3 -11 7 -20 9 -20 2 0 4 9 4 20 0 11 -4 20 -9 20 -5 0
-7 -9 -4 -20z"/>
<path d="M2412 3230 c0 -14 2 -19 5 -12 2 6 2 18 0 25 -3 6 -5 1 -5 -13z"/>
<path d="M1330 3225 c0 -8 4 -15 10 -15 5 0 7 7 4 15 -4 8 -8 15 -10 15 -2 0
-4 -7 -4 -15z"/>
<path d="M2381 3210 c-1 -19 19 -93 24 -88 2 2 -2 26 -10 53 -7 28 -14 43 -14
35z"/>
<path d="M2360 3186 c0 -8 4 -17 9 -20 5 -4 7 3 4 14 -6 23 -13 26 -13 6z"/>
<path d="M2422 3110 c0 -19 2 -27 5 -17 2 9 2 25 0 35 -3 9 -5 1 -5 -18z"/>
<path d="M1270 3071 c0 -6 5 -13 10 -16 6 -3 10 1 10 9 0 9 -4 16 -10 16 -5 0
-10 -4 -10 -9z"/>
<path d="M1240 3015 c0 -33 4 -45 15 -45 10 0 14 7 11 23 -3 12 -5 32 -5 45
-2 43 -21 22 -21 -23z"/>
<path d="M2423 2965 c0 -22 2 -30 4 -17 2 12 2 30 0 40 -3 9 -5 -1 -4 -23z"/>
<path d="M2601 2984 c0 -11 3 -14 6 -6 3 7 2 16 -1 19 -3 4 -6 -2 -5 -13z"/>
<path d="M1162 2925 c0 -16 2 -22 5 -12 2 9 2 23 0 30 -3 6 -5 -1 -5 -18z"/>
<path d="M1250 2940 c0 -5 4 -10 9 -10 6 0 13 5 16 10 3 6 -1 10 -9 10 -9 0
-16 -4 -16 -10z"/>
<path d="M2273 2915 c0 -22 2 -30 4 -17 2 12 2 30 0 40 -3 9 -5 -1 -4 -23z"/>
<path d="M2322 2895 c0 -16 2 -22 5 -12 2 9 2 23 0 30 -3 6 -5 -1 -5 -18z"/>
<path d="M2362 2880 c0 -14 2 -19 5 -12 2 6 2 18 0 25 -3 6 -5 1 -5 -13z"/>
<path d="M2243 2825 c0 -27 2 -38 4 -22 2 15 2 37 0 50 -2 12 -4 0 -4 -28z"/>
<path d="M2222 2835 c0 -16 2 -22 5 -12 2 9 2 23 0 30 -3 6 -5 -1 -5 -18z"/>
<path d="M2312 2820 c0 -14 2 -19 5 -12 2 6 2 18 0 25 -3 6 -5 1 -5 -13z"/>
<path d="M2271 2814 c0 -11 3 -14 6 -6 3 7 2 16 -1 19 -3 4 -6 -2 -5 -13z"/>
<path d="M1402 2795 c0 -16 2 -22 5 -12 2 9 2 23 0 30 -3 6 -5 -1 -5 -18z"/>
<path d="M1631 2810 c0 -8 4 -22 9 -30 12 -18 12 -2 0 25 -6 13 -9 15 -9 5z"/>
<path d="M1355 2800 c3 -5 8 -10 11 -10 2 0 4 5 4 10 0 6 -5 10 -11 10 -5 0
-7 -4 -4 -10z"/>
<path d="M2191 2794 c0 -11 3 -14 6 -6 3 7 2 16 -1 19 -3 4 -6 -2 -5 -13z"/>
<path d="M1684 2790 c13 -41 56 -133 56 -120 0 8 -14 42 -30 75 -17 33 -28 53
-26 45z"/>
<path d="M2032 2780 c0 -14 2 -19 5 -12 2 6 2 18 0 25 -3 6 -5 1 -5 -13z"/>
<path d="M2321 2774 c0 -11 3 -14 6 -6 3 7 2 16 -1 19 -3 4 -6 -2 -5 -13z"/>
<path d="M1670 2762 c0 -7 -5 -10 -11 -6 -8 4 -7 0 1 -15 6 -12 15 -19 20 -16
5 3 12 -4 15 -16 4 -11 9 -18 12 -16 2 3 -5 22 -16 44 -11 21 -20 32 -21 25z"/>
<path d="M1391 2750 c0 -8 4 -24 9 -35 5 -13 9 -14 9 -5 0 8 -4 24 -9 35 -5
13 -9 14 -9 5z"/>
<path d="M1766 2731 c-4 -5 -2 -20 3 -33 9 -21 10 -21 11 -3 1 32 19 -3 21
-40 1 -25 3 -22 10 14 5 25 6 47 4 50 -3 2 -5 -4 -5 -15 -1 -15 -4 -14 -16 9
-16 29 -20 32 -28 18z"/>
<path d="M1681 2684 c0 -11 3 -14 6 -6 3 7 2 16 -1 19 -3 4 -6 -2 -5 -13z"/>
<path d="M1781 2654 c0 -11 3 -14 6 -6 3 7 2 16 -1 19 -3 4 -6 -2 -5 -13z"/>
<path d="M1892 2647 c-7 -16 -12 -36 -12 -45 0 -15 2 -15 11 -2 8 11 9 8 5
-15 -4 -20 -3 -25 2 -16 8 11 10 11 15 0 4 -8 4 0 1 16 -4 29 -4 29 6 5 6 -14
9 -35 7 -47 -2 -12 0 -20 4 -17 5 3 9 32 9 66 0 51 -2 59 -14 49 -12 -10 -15
-8 -18 11 -4 22 -5 22 -16 -5z"/>
<path d="M2021 2654 c0 -11 3 -14 6 -6 3 7 2 16 -1 19 -3 4 -6 -2 -5 -13z"/>
<path d="M1320 2655 c0 -5 5 -17 10 -25 5 -8 10 -10 10 -5 0 6 -5 17 -10 25
-5 8 -10 11 -10 5z"/>
<path d="M1831 2634 c0 -11 3 -14 6 -6 3 7 2 16 -1 19 -3 4 -6 -2 -5 -13z"/>
<path d="M1410 2625 c0 -8 2 -15 4 -15 2 0 6 7 10 15 3 8 1 15 -4 15 -6 0 -10
-7 -10 -15z"/>
<path d="M1850 2635 c0 -5 5 -17 10 -25 5 -8 10 -10 10 -5 0 6 -5 17 -10 25
-5 8 -10 11 -10 5z"/>
<path d="M1270 2611 c0 -6 5 -11 11 -11 7 0 9 -10 5 -24 -3 -14 -2 -27 3 -30
5 -3 12 6 15 20 4 15 6 27 4 28 -2 1 -11 8 -20 15 -12 9 -18 10 -18 2z"/>
<path d="M1957 2610 c-10 -29 -16 -120 -7 -120 10 0 25 102 17 122 -4 10 -6
10 -10 -2z"/>
<path d="M1533 2563 c9 -2 25 -2 35 0 9 3 1 5 -18 5 -19 0 -27 -2 -17 -5z"/>
<path d="M1907 2299 c4 -13 8 -18 11 -10 2 7 -1 18 -6 23 -8 8 -9 4 -5 -13z"/>
<path d="M1817 2153 c-4 -3 -7 -11 -7 -17 0 -6 5 -5 12 2 6 6 9 14 7 17 -3 3
-9 2 -12 -2z"/>
<path d="M1261 2138 c-1 -28 21 -68 38 -68 14 0 14 2 1 10 -8 5 -20 24 -27 42
-6 18 -12 25 -12 16z"/>
<path d="M1305 2020 c14 -52 59 -63 129 -31 23 10 52 24 66 30 24 10 24 10 -5
4 -16 -3 -47 -14 -67 -24 -21 -11 -46 -19 -57 -19 -20 0 -27 6 -57 45 -15 19
-15 19 -9 -5z"/>
<path d="M1612 2005 c-11 -14 -23 -25 -27 -25 -3 0 -13 -6 -20 -14 -12 -12
-12 -15 1 -20 8 -3 12 -2 9 4 -3 6 -2 10 4 10 5 0 13 -4 16 -10 10 -16 25 -12
19 5 -8 20 10 19 26 0 11 -13 15 -13 21 -3 12 18 11 28 -2 28 -5 0 -7 -6 -4
-12 4 -7 0 -5 -8 5 -8 9 -20 17 -28 18 -8 1 -3 4 11 9 42 13 65 -10 61 -60 -2
-36 0 -42 13 -37 9 4 16 1 17 -6 1 -17 17 24 18 46 1 10 -4 15 -10 12 -6 -4
-9 -1 -7 6 4 20 -46 69 -70 69 -11 0 -29 -11 -40 -25z"/>
<path d="M1750 2009 c0 -12 5 -16 15 -13 8 4 15 12 15 18 0 7 -7 13 -15 13 -8
0 -15 -8 -15 -18z"/>
<path d="M498 1983 c7 -3 16 -2 19 1 4 3 -2 6 -13 5 -11 0 -14 -3 -6 -6z"/>
<path d="M1504 1895 c-18 -14 -18 -14 4 -15 13 0 21 4 17 9 -3 5 7 12 22 14
28 4 28 4 2 6 -14 0 -34 -6 -45 -14z"/>
<path d="M1699 1862 c9 -7 11 -20 7 -43 -6 -27 -5 -31 4 -16 15 23 9 59 -10
64 -12 4 -12 3 -1 -5z"/>
<path d="M1672 1780 c0 -14 2 -19 5 -12 2 6 2 18 0 25 -3 6 -5 1 -5 -13z"/>
<path d="M1780 1740 c0 -5 5 -10 10 -10 6 0 10 5 10 10 0 6 -4 10 -10 10 -5 0
-10 -4 -10 -10z"/>
<path d="M1845 1740 c3 -5 11 -10 16 -10 6 0 7 5 4 10 -3 6 -11 10 -16 10 -6
0 -7 -4 -4 -10z"/>
<path d="M1801 1694 c0 -11 3 -14 6 -6 3 7 2 16 -1 19 -3 4 -6 -2 -5 -13z"/>
<path d="M1877 1671 c-4 -18 -7 -50 -6 -70 1 -36 1 -36 10 9 5 25 8 56 7 70
-3 22 -4 21 -11 -9z"/>
<path d="M1775 1633 c-3 -21 -9 -49 -11 -63 -4 -19 -3 -21 4 -10 11 17 27 110
19 110 -3 0 -8 -17 -12 -37z"/>
</g>
</svg>
